<?xml version="1.0" encoding="UTF-8" standalone="no"?><!DOCTYPE svg PUBLIC "-//W3C//DTD SVG 1.1//EN" "http://www.w3.org/Graphics/SVG/1.1/DTD/svg11.dtd"><svg width="100%" height="100%" viewBox="0 0 675 731" version="1.1" xmlns="http://www.w3.org/2000/svg" xmlns:xlink="http://www.w3.org/1999/xlink" xml:space="preserve" xmlns:serif="http://www.serif.com/" style="fill-rule:evenodd;clip-rule:evenodd;stroke-linejoin:round;stroke-miterlimit:2;"><g><path d="M210.113,463.478c-0.643,0.026 -1.553,0.258 -2.104,0.368c-6.09,1.218 -11.225,4.785 -15.945,8.561c-1.264,1.011 -12.725,7.755 -17.258,11.266c-1.486,1.151 -2.414,2.196 -2.767,2.805c-0.497,0.855 -0.623,1.635 -0.623,2.249c0,1.015 0.342,1.843 0.889,2.522c0.544,0.677 1.38,1.369 2.807,1.489c0.338,0.028 1.058,0.084 2.133,-0.375c0.54,-0.231 1.926,-0.987 4.789,-2.896l0.609,-0.403c0.157,0.243 0.343,0.469 0.553,0.68c1.157,1.157 2.8,1.736 4.86,1.207c1.909,-0.491 6.099,-3.834 6.368,-4.049c5.886,-3.602 12.609,-5.765 17.457,-10.613c0.679,-0.679 1.063,-1.543 1.15,-2.431c1.773,-1.309 3.542,-2.606 5.314,-3.856c3.063,-2.163 5.673,-4.798 8.533,-7.181c0.418,-0.348 1.396,-0.84 1.396,-0.84c1.819,-0.972 2.6,-3.168 1.804,-5.071c-0.797,-1.903 -2.909,-2.888 -4.878,-2.275c-0,-0 -2.389,0.783 -3.458,1.424c-3.397,2.038 -6.75,4.38 -10.153,6.507l-1.476,0.912Z" style="fill:#ffcf35;"/><path d="M375.112,247.906c-0.908,-0.069 -2.729,-0.085 -2.729,-0.085c-0,0 5.78,-11.26 8.489,-16.978c7.817,-16.503 19.549,-31.164 31.936,-44.468c35.173,-37.779 84.719,-71.402 138.255,-55.787c9.755,2.845 19.155,7.041 26.681,14.149c36.31,34.292 7.426,110.866 -17.383,143.51c-7.104,9.347 -15.783,17.455 -24.659,25.064c-18.623,15.962 -37.015,27.043 -59.426,36.787c-6.484,2.819 -13.269,4.256 -19.808,6.872c-2.296,0.918 -4.569,1.966 -6.873,2.83c-0.961,0.36 -3.555,0.487 -2.829,1.213c11.339,11.339 56.833,-2.254 70.34,-4.851c18.399,-3.539 39.069,-6.548 57.808,-5.256c44.163,3.046 97.272,37.551 95.404,86.106c-0.588,15.285 -6.556,28.843 -14.553,41.639c-25.583,40.933 -70.457,60.096 -118.446,57c-25.114,-1.621 -45.594,-7.71 -67.107,-20.617c-7.229,-4.338 -14.48,-10.018 -22.234,-13.341c-3.186,-1.365 -6.481,-2.564 -9.702,-3.638c-0.286,-0.095 -0.943,-0.674 -0.808,-0.404c4.982,9.965 29.631,19.267 38.808,25.063c32.501,20.527 77.262,36.937 90.553,76.809c21.066,63.197 -48.164,104.222 -100.255,115.616c-11.652,2.549 -25.971,6.822 -38,4.447c-13.423,-2.65 -26.484,-9.407 -37.191,-17.787c-28.396,-22.223 -38.655,-63.301 -44.468,-97.021c-2.544,-14.757 -3.616,-29.781 -6.064,-44.468c-0.067,-0.4 -0.238,-4.851 -1.213,-4.851c-2.459,0 0.839,4.846 1.213,7.277c0.925,6.01 1.062,12.111 0.808,18.191c-0.603,14.483 -4.842,27.834 -10.106,41.234c-21.695,55.223 -60.987,120.31 -129.766,100.659c-83.495,-23.856 -101.772,-117.432 -66.297,-188.382c14.238,-28.478 36.142,-54.171 65.893,-67.106c9.836,-4.277 20.463,-5.64 30.724,-8.49c3.893,-1.081 7.823,-2.17 11.723,-3.234c0.315,-0.086 6.148,-1.532 5.659,-2.021c-1.824,-1.824 -13.154,6.119 -14.553,6.872c-16.549,8.911 -30.083,20.373 -48.106,26.681c-55.161,19.306 -157.767,3.155 -177.063,-60.638c-16.992,-56.174 4.578,-130.966 61.851,-154.83c28.394,-11.831 65.408,-13.554 94.999,-4.851c10.883,3.201 19.232,7.826 28.702,13.745c3.793,2.37 7.093,5.388 10.915,7.681c0.932,0.559 2.83,1.617 2.83,1.617c0,-0 -1.348,-0.809 -2.021,-1.213c-3.296,-1.977 -6.416,-5.668 -8.49,-8.894c-6.128,-9.533 -9.786,-21.274 -13.34,-31.936c-9.326,-27.978 -11.707,-58.424 -10.915,-87.723c2.132,-78.89 49.293,-162.383 138.659,-155.234c85.811,6.865 78.075,125.348 73.979,184.745c-1.455,21.102 -7.058,65.674 -22.638,81.255" style="fill:#ffcf35;"/><path d="M190.248,272.839c-7.09,-4.076 -14.062,-7.373 -22.502,-9.855c-30.422,-8.948 -68.475,-7.167 -97.667,4.996c-59.111,24.63 -81.679,101.702 -64.141,159.68c8.057,26.636 29.891,45.451 57.04,56.987c28.266,12.01 62.256,16.099 91.716,13.257c-9.009,10.551 -16.603,22.387 -22.782,34.745c-36.565,73.131 -17.286,169.428 68.777,194.017c36.007,10.288 64.311,-1.548 86.438,-23.241c21.518,-21.097 37.104,-51.686 48.149,-79.801c2.795,-7.114 5.298,-14.216 7.152,-21.472c0.174,1.104 0.355,2.206 0.545,3.306c5.97,34.623 16.788,76.673 45.945,99.491c11.19,8.758 24.853,15.792 38.881,18.562c12.539,2.475 27.484,-1.807 39.63,-4.464c26.677,-5.835 57.722,-19.298 79.421,-39.353c22.327,-20.635 34.874,-48.136 23.774,-81.436c-6.929,-20.786 -21.963,-35.539 -39.598,-47.688c-8.573,-5.906 -17.76,-11.193 -26.853,-16.307c10.34,2.903 21.118,4.62 32.888,5.379c49.487,3.193 95.715,-16.661 122.096,-58.871c8.37,-13.392 14.543,-27.608 15.158,-43.605c0.789,-20.516 -7.642,-38.686 -21.115,-53.275c-19.809,-21.452 -50.574,-35.083 -78.011,-36.975c-19.072,-1.316 -40.113,1.716 -58.839,5.318c-9.331,1.794 -34.123,8.956 -52.003,9.223c-2.698,0.04 -5.226,-0.031 -7.462,-0.337c0.356,-0.148 0.712,-0.293 1.068,-0.436c6.577,-2.631 13.398,-4.083 19.918,-6.918c22.792,-9.91 41.494,-21.184 60.434,-37.418c9.09,-7.792 17.965,-16.108 25.241,-25.681c15.237,-20.049 31.97,-56.288 34.895,-89.652c2.018,-23.024 -2.562,-44.653 -17.95,-59.187c-7.993,-7.548 -17.947,-12.059 -28.308,-15.08c-55.034,-16.052 -106.145,18.065 -142.302,56.901c-7.422,7.971 -14.603,16.424 -20.885,25.453c0.954,-7.311 1.569,-13.977 1.93,-19.218c2.49,-36.097 6.173,-93.729 -9.946,-135.568c-11.16,-28.969 -31.596,-50.55 -67.704,-53.439c-91.843,-7.347 -140.785,78.035 -142.976,159.113c-0.805,29.759 1.646,60.678 11.118,89.096c2.589,7.767 5.255,16.08 8.83,23.753Zm187.467,-44.663c3.016,-14.48 4.563,-29.167 5.23,-38.842c2.427,-35.18 6.279,-91.366 -9.43,-132.142c-10.058,-26.108 -28.335,-45.737 -60.877,-48.34c-86.889,-6.951 -132.268,74.65 -134.341,151.354c-0.78,28.839 1.531,58.811 10.711,86.35c3.451,10.356 6.958,21.779 12.91,31.038c1.767,2.749 4.375,5.942 7.183,7.627c0.673,0.404 2.021,1.213 2.021,1.213c1.873,1.124 2.498,3.542 1.404,5.433c-1.093,1.891 -3.502,2.554 -5.41,1.491c0,-0 -1.972,-1.1 -2.94,-1.681c-3.842,-2.306 -7.164,-5.336 -10.977,-7.719c-9.147,-5.717 -17.199,-10.208 -27.71,-13.299c-28.761,-8.459 -64.736,-6.793 -92.333,4.706c-55.433,23.097 -76.007,95.608 -59.561,149.979c7.381,24.399 27.642,41.373 52.512,51.94c30.075,12.779 66.943,16.22 97.034,11.534c10.58,-10.434 22.794,-19.132 36.647,-25.155c10.007,-4.351 20.808,-5.775 31.248,-8.675c3.169,-0.88 6.361,-1.765 9.544,-2.635c2.074,-1.169 4.169,-2.218 5.717,-2.666c2.851,-0.826 4.948,-0.001 6.021,1.071c0.877,0.878 1.197,1.869 1.201,2.877c0.003,0.86 -0.226,1.947 -1.232,2.953c-0.334,0.334 -1.059,0.873 -2.137,1.301c-1.664,0.661 -5.021,1.511 -5.268,1.578l-1.405,0.386c-3.071,1.79 -5.978,3.769 -6.644,4.128c-16.738,9.013 -30.453,20.555 -48.682,26.934c-6.48,2.269 -13.601,4.061 -21.157,5.354c-11.374,11.645 -20.667,25.438 -27.927,39.958c-34.384,68.769 -17.11,159.624 63.819,182.747c32.771,9.363 58.502,-1.518 78.64,-21.262c20.747,-20.34 35.655,-49.906 46.304,-77.014c5.1,-12.981 9.248,-25.906 9.833,-39.937c0.242,-5.821 0.12,-11.663 -0.766,-17.417c-0.184,-1.201 -1.248,-3.044 -1.706,-4.456c-0.538,-1.661 -0.525,-3.117 -0.232,-4.074c0.341,-1.117 0.997,-1.974 1.942,-2.581c0.672,-0.433 1.552,-0.774 2.737,-0.774c1.42,0 3.117,0.657 4.11,2.756c0.618,1.306 1.025,5.146 1.065,5.54c2.435,14.646 3.506,29.628 6.044,44.343c5.658,32.816 15.356,72.924 42.991,94.551c10.224,8.002 22.683,14.483 35.501,17.013c11.52,2.274 25.212,-1.989 36.37,-4.43c25.415,-5.56 55.029,-18.307 75.702,-37.413c20.044,-18.525 31.579,-43.135 21.613,-73.031c-6.362,-19.086 -20.354,-32.475 -36.547,-43.63c-16.87,-11.622 -36.139,-20.825 -52.347,-31.062c-5.486,-3.465 -16.525,-8.181 -25.548,-13.55c-6.811,-4.053 -12.453,-8.609 -14.702,-13.107c-0.523,-1.045 -0.464,-1.829 -0.418,-2.268c0.142,-1.334 0.791,-2.209 1.622,-2.817c0.618,-0.452 1.436,-0.812 2.525,-0.771c0.296,0.011 2.538,0.955 2.538,0.955c-0,0 -0.455,-0.224 -0.616,-0.278c3.325,1.108 6.725,2.347 10.013,3.757c7.916,3.392 15.336,9.159 22.716,13.587c20.935,12.56 40.867,18.478 65.306,20.055c46.493,2.999 90.012,-15.472 114.797,-55.128c7.625,-12.199 13.388,-25.1 13.948,-39.672c0.705,-18.329 -6.962,-34.507 -18.998,-47.541c-18.454,-19.984 -47.125,-32.659 -72.684,-34.421c-18.406,-1.27 -38.706,1.717 -56.778,5.193c-9.578,1.842 -35.043,9.092 -53.394,9.366c-9.083,0.136 -16.55,-1.635 -20.53,-5.615c-1.079,-1.08 -1.298,-2.181 -1.298,-3.064c0,-0.915 0.271,-1.791 0.893,-2.591c0.394,-0.506 1.05,-1.094 2.045,-1.485c0.671,-0.264 1.984,-0.41 2.614,-0.646c2.277,-0.854 4.522,-1.891 6.791,-2.799c6.503,-2.601 13.252,-4.023 19.699,-6.827c22.03,-9.578 40.111,-20.465 58.417,-36.155c8.663,-7.425 17.146,-15.325 24.078,-24.447c14.534,-19.124 30.506,-53.687 33.295,-85.511c1.792,-20.436 -1.814,-39.771 -15.473,-52.671c-7.059,-6.667 -15.905,-10.549 -25.055,-13.217c-52.039,-15.178 -100.018,17.95 -134.207,54.672c-11.672,12.537 -22.773,26.287 -30.404,41.713c-0.853,4.016 -1.817,8.01 -2.903,11.877c-3.624,12.906 -8.684,24.384 -15.303,31.002c-1.561,1.561 -4.096,1.561 -5.657,0c-1.561,-1.561 -1.561,-4.095 0,-5.657c3.863,-3.862 7.011,-9.653 9.626,-16.426c-0.879,-0.299 -1.64,-0.9 -2.135,-1.717c-0.718,-1.188 -0.77,-2.663 -0.136,-3.897c0,-0 5.743,-11.185 8.433,-16.865c0.151,-0.319 0.304,-0.637 0.458,-0.954Zm-160.634,238.349c-4.796,1.152 -9.537,2.49 -14.103,4.475c-8.66,3.765 -16.63,8.65 -23.919,14.394c2.218,-0.625 4.368,-1.301 6.45,-2.029c11.751,-4.113 21.559,-10.464 31.572,-16.84Z" style="fill:#ffcf35;"/></g></svg>
