<?xml version="1.0" encoding="UTF-8" standalone="no"?><!DOCTYPE svg PUBLIC "-//W3C//DTD SVG 1.1//EN" "http://www.w3.org/Graphics/SVG/1.1/DTD/svg11.dtd"><svg width="100%" height="100%" viewBox="0 0 952 539" version="1.1" xmlns="http://www.w3.org/2000/svg" xmlns:xlink="http://www.w3.org/1999/xlink" xml:space="preserve" xmlns:serif="http://www.serif.com/" style="fill-rule:evenodd;clip-rule:evenodd;stroke-linejoin:round;stroke-miterlimit:2;"><g><path d="M12.345,65.085c0.91,-0.578 6.443,-4.099 7.572,-4.947c8.921,-6.69 15.343,-19.254 21.36,-28.468l-0.423,3.794c-2.995,25.459 -4.903,51.363 -6.323,76.922c-1.549,27.879 0.422,55.419 3.149,82.867c0.057,4.979 0.704,10.07 1.572,15.205l0.343,3.236c0.212,1.974 0.423,3.948 0.634,5.922l0.387,3.629c-0.422,3.649 -0.84,7.181 -0.84,10.155c0,24.057 -0.933,48.408 0.578,72.408c-0.198,5.623 -0.333,10.73 -0.38,15.052c-0.067,6.123 0.07,10.77 0.404,13.286c-5.697,-0.294 -11.358,-0.824 -16.951,-1.756c-4.468,-0.745 -13.588,-0.041 -13.588,-0.041c-2.081,0.17 -3.681,1.912 -3.674,4c0.002,0.771 0.224,1.494 0.608,2.107c-0.098,1.048 0.094,2.329 0.864,3.87c2.079,4.158 5.691,6.704 10.419,7.945c3.94,1.034 8.742,1.125 13.928,0.597c8.954,-0.912 19.185,-3.738 27.566,-5.616c0.984,0.082 1.961,0.159 2.93,0.231c11.915,0.883 22.707,0.872 28.777,-1.151c1.753,-0.585 4.972,-2.452 4.972,-2.452c1.479,-0.875 2.235,-2.595 1.877,-4.275c-0.357,-1.681 -1.747,-2.945 -3.453,-3.142c0,-0 -9.396,-1.077 -14.114,-1.077c-6.658,-0 -11.703,-0.255 -15.363,-0.765c-1.39,-0.194 -2.792,-0.575 -3.793,-0.889c0.868,-0.927 1.657,-2.867 1.528,-5.384c-0.165,-3.218 -1.488,-7.78 -1.902,-8.607c-1.304,-2.608 -2.564,-7.841 -3.779,-14.881l-0,-0.136c-0,-64.525 -5.252,-128.214 -5.252,-193.267c-0,-27.017 2.968,-54.387 -0.025,-81.32c-0.309,-2.784 -0.606,-7.197 -0.8,-10.418c0.632,-5.533 1.121,-10.644 1.036,-12.622c-0.168,-3.925 -3.325,-4.677 -4.211,-4.677c-0.853,0 -2.682,0.338 -4.008,2.538c-1.33,2.207 -3.868,9.733 -6.006,15.978c-1.2,3.504 -2.187,6.553 -2.768,7.424c-5.731,8.597 -11.547,20.98 -20.079,27.378c-1.205,0.904 -5.911,3.57 -7.825,5.125c-1.6,1.3 -2.134,2.738 -2.235,3.43c-0.317,2.184 1.199,4.216 3.384,4.533c1.577,0.229 3.074,-0.497 3.904,-1.741Zm4.928,276.308c0.828,0.502 1.778,0.868 2.814,1.14c3.135,0.823 6.96,0.796 11.086,0.376c0.806,-0.082 1.621,-0.179 2.447,-0.291c-6.381,-0.66 -12.083,-1.167 -16.347,-1.225Zm26.113,-243.176c-0.31,4.879 -0.598,9.752 -0.868,14.613c-0.414,7.459 -0.575,14.895 -0.534,22.32c0.947,-12.127 1.314,-24.504 1.402,-36.933Z" style="fill:#ffd700;"/><path d="M90.49,176.301c-1.45,1.56 -2.372,3.155 -2.889,4.73c-0.458,1.395 -0.63,2.823 -0.527,4.274c-1.381,5.707 -1.424,11.681 0.317,16.906c2.76,8.279 7,13.104 11.773,15.998c2.314,1.403 4.779,2.334 7.306,2.949c1.853,1.497 3.701,2.963 5.47,4.409c2.914,2.383 5.591,4.702 7.584,7.043c1.527,1.793 2.673,3.524 2.845,5.377c0.065,0.709 -0.044,1.412 -0.321,2.125c-1.228,0.801 -2.656,1.604 -4.291,2.422c-1.314,0.657 -2.109,1.941 -2.201,3.31c-0.764,0.336 -1.528,0.626 -2.287,0.861c-2.4,0.744 -4.721,0.989 -6.64,0.03c-4.149,-2.074 -5.739,-4.826 -7.33,-7.578c-1.458,-2.521 -2.913,-5.056 -5.285,-7.428c-0.82,-0.821 -1.634,-1.031 -2.157,-1.122c-1.051,-0.183 -1.954,0.039 -2.738,0.506c-0.602,0.359 -1.183,0.896 -1.58,1.75c-0.091,0.195 -0.709,1.531 0.004,3.565c0.983,2.807 6.176,14.432 12.399,19.563c3.774,3.111 7.918,4.112 11.939,2.101c5.473,-2.737 9.468,-5.371 12.277,-7.878c1.042,-0.678 2.066,-1.408 3.059,-2.179c4.306,-3.344 8.04,-7.449 10.353,-11.301c1.833,-3.051 2.782,-6.02 2.782,-8.479c-0,-1.437 0.197,-4.259 -0.206,-5.466c-1.425,-4.275 -4.334,-6.514 -8.301,-7.604c-1.845,-0.507 -3.977,-0.724 -6.297,-0.808c-3.07,-2.933 -6.597,-5.859 -10.194,-8.742c-4.613,-3.697 -9.327,-7.341 -13.153,-10.891c-2.432,-2.256 -4.494,-4.446 -5.834,-6.598l-0.02,-0.034c0.155,-0.375 0.327,-0.752 0.517,-1.133c0.846,-1.691 2.516,-3.008 4.097,-4.179c1.967,-1.455 3.901,-2.699 5.134,-3.755l0.252,0.094c4.035,1.538 7.795,4.105 7.795,4.105c1.781,1.214 4.203,0.797 5.477,-0.939c-0.076,1.062 -0.109,2.043 -0.038,2.869c0.204,2.361 1.18,4.001 2.473,4.941c1.067,0.774 2.476,1.267 4.417,0.962c2.18,-0.344 3.672,-2.394 3.328,-4.574c-0.209,-1.325 -1.047,-2.396 -2.163,-2.954c0.057,-1.174 0.155,-3.002 0.267,-4.334c0.181,-2.148 0.22,-4.3 -0.136,-6.075c-0.363,-1.805 -1.119,-3.31 -2.242,-4.433c-5.585,-5.585 -11.369,-7.344 -16.668,-6.764c-5.221,0.572 -10.105,3.519 -14.002,7.971c-1.655,1.891 -3.125,4.053 -4.365,6.387Zm30.795,46.032l-0.784,0.004c2.586,2.288 4.84,4.559 6.493,6.831c0.164,0.226 0.323,0.452 0.474,0.68c-0.608,-1.741 -1.817,-3.489 -3.281,-5.284c-0.608,-0.746 -1.267,-1.491 -1.97,-2.235l-0.932,0.004Zm-23.257,-20.619c0.407,0.62 0.849,1.23 1.321,1.831c2.861,3.648 6.703,7.006 10.651,10.212c1.06,0.203 2.132,0.339 3.204,0.427c-0.941,-0.77 -1.895,-1.539 -2.853,-2.306c-4.272,-3.424 -8.602,-6.831 -12.323,-10.164Zm21.768,-27.422c-3.288,-3.261 -6.568,-4.65 -9.706,-4.429c-1.246,0.088 -2.448,0.408 -3.597,0.918l0.092,0.023c0.346,0.094 0.695,0.198 1.044,0.311c0.44,0.07 0.889,0.169 1.344,0.297c4.469,1.252 9.87,5.363 9.87,5.363c0.485,0.376 0.861,0.841 1.12,1.356l0.041,-0.58c0.047,-0.797 0.067,-1.577 -0.003,-2.293c-0.032,-0.327 -0.172,-0.848 -0.205,-0.966Z" style="fill:#ffd700;"/><path d="M195.566,178.631c-0.04,-0.314 -0.115,-0.611 -0.21,-0.889c-0.403,-1.184 -1.344,-2.414 -3.25,-2.955c-0.846,-0.24 -2.198,-0.343 -3.745,-0.234c-2.225,0.156 -5.976,0.824 -6.509,0.921c-3.909,-0.107 -23.097,-3.076 -32.588,-1.314c-3.924,0.729 -6.546,2.446 -7.663,4.441c-1.011,1.806 -1.285,4.075 0.111,6.868c1.238,2.476 4.142,4.312 6.729,4.312c15.832,-0 38.797,-3.151 47.266,-3.151c2.208,-0 4,-1.793 4,-4c0,-2.208 -1.792,-4 -4,-4l-0.141,0.001Zm-46.985,3.149c-0.049,-0.002 -0.098,0.001 -0.14,0.001l0.14,-0.001Z" style="fill:#ffd700;"/><path d="M168.925,159.957c-0.583,0.74 -1.119,1.642 -1.59,2.718c-3.63,8.303 -4.353,31.067 -1.591,49.855c0.307,5.326 1.298,10.406 3.338,15.008c1.565,4.836 3.485,8.76 5.673,11.262c2.406,2.75 5.196,4.082 8.178,4.029c2.681,-0.048 5.746,-1.277 8.953,-4.484c1.463,-1.464 2.735,-3.727 3.792,-6.273c1.212,-2.919 2.174,-6.252 3.259,-8.422c0.456,-0.911 0.735,-2.172 0.767,-3.519c0.048,-2.058 -0.432,-4.352 -0.432,-4.352c-0.375,-1.766 -1.886,-3.062 -3.688,-3.163c-1.802,-0.101 -3.449,1.016 -4.019,2.729c-0,-0 -1.401,4.201 -2.101,6.302c-1.316,3.949 -2.778,7.041 -4.432,9.049c-0.812,0.986 -1.487,1.796 -2.399,1.661c-0.695,-0.102 -1.327,-0.638 -2.046,-1.38c-0.398,-0.412 -0.794,-0.884 -1.189,-1.419c-0.074,-12.731 -2.161,-30.067 -2.893,-46.602c0.99,-6.367 1.847,-12.448 1.847,-17.814c0,-0.644 -0.04,-1.407 -0.104,-2.221c0.111,-0.242 0.2,-0.499 0.263,-0.769c0.28,-1.204 -0.017,-2.408 -0.709,-3.322c-0.277,-2.112 -0.555,-3.801 -0.555,-3.801c-0.331,-1.982 -2.081,-3.41 -4.089,-3.338c-2.008,0.072 -3.651,1.623 -3.839,3.624c0,-0 -0.182,1.949 -0.394,4.642Z" style="fill:#ffd700;"/><path d="M203.578,358.776l-0.561,0.105c-1.466,0.118 -2.75,1.031 -3.341,2.378c-0.592,1.346 -0.397,2.91 0.508,4.069c-0,0 1.622,2.08 2.433,3.12c0.257,0.329 0.499,0.651 0.723,0.967c-0.735,7.865 -1.001,15.571 -0.655,23.433c-0.237,1.538 -0.511,3.053 -0.827,4.538c-1.712,8.047 -2.453,15.968 -2.701,23.842c-0.781,13.46 -0.428,26.948 -0.428,40.933c0,4.302 0.287,8.699 0.763,13.119c-0.042,0.729 -0.091,1.456 -0.144,2.185c-0.728,9.955 -0.619,19.927 -0.619,29.923l0,3.119l0.005,0.206l0.016,0.203l0.025,0.2l0.035,0.197l0.045,0.194l0.054,0.19l0.063,0.186l0.072,0.181l0.08,0.177l0.088,0.173l0.096,0.167l0.104,0.163l0.112,0.157l0.119,0.151l0.125,0.145l0.133,0.139l0.139,0.132l0.145,0.126l0.151,0.119l0.157,0.111l0.162,0.104l0.168,0.097l0.172,0.088l0.177,0.08l0.182,0.072l0.186,0.062l0.19,0.054l0.193,0.045l0.197,0.035l0.2,0.026l0.203,0.015l0.206,0.005l0.206,-0.005l0.203,-0.015l0.2,-0.026l0.197,-0.035l0.194,-0.045l0.19,-0.054l0.174,-0.058c0.162,0.494 0.441,0.992 0.87,1.487c0.297,0.343 0.806,0.817 1.672,1.24l0.002,0.232c-0.028,0.595 -0.088,2.548 0.23,3.466c0.696,2.008 2.14,3.171 4.379,3.171c1.282,-0 2.812,-0.422 3.676,-2.416c0.073,-0.168 0.452,-1.076 0.255,-2.594c1.622,0.099 3.218,0.005 4.798,-0.198c4.657,-0.097 9.517,-1.017 14.46,-2.615c6.713,-0.681 12.881,-0.354 19.323,-3.5c6.183,-3.02 12.348,-7.559 18.186,-13.166c12.554,-7.771 26.048,-19.907 35.585,-32.764c9.081,-12.241 14.45,-25.189 12.913,-35.702c-1.123,-7.674 -4.968,-13.703 -10.6,-18.246c-0.244,-1.236 -0.536,-2.455 -0.88,-3.645c-1.686,-5.836 -4.595,-10.966 -9.024,-14.377c-4.601,-5.506 -12.374,-7.002 -21.616,-5.418c-4.159,0.713 -8.637,2.039 -13.184,3.744c7.328,-5.267 14.222,-10.88 19.558,-16.985c9.503,-10.873 14.279,-23.253 9.424,-37.777c-2.259,-6.757 -8.709,-13.195 -17.111,-14.631c-5.732,-0.98 -11.746,0.115 -17.626,2.236c-7.935,2.862 -15.631,7.608 -21.871,10.57c-6.151,2.92 -15.047,7.038 -22.361,11.864c-4.891,3.227 -9.071,6.817 -11.573,10.531Zm96.132,56.786c-2.305,-1.206 -4.826,-2.208 -7.483,-3.032c-13.713,-4.254 -31.138,-3.786 -44.294,-0.555c-7.656,4.294 -14.579,9.002 -19.489,13.198c-3.405,2.909 -10.289,10.881 -15.108,15.745l-0.012,0.099c0.168,10.979 -0.111,21.908 -1.139,32.449c-1.161,11.912 1.004,22.961 1.995,34.314c4.665,-0.329 10.339,-0.457 11.527,-0.683c7.186,-1.364 14.3,-3.275 21.232,-5.506c4.41,-2.601 8.786,-5.654 13.037,-9.006c11.45,-9.032 21.995,-20.299 29.704,-31.27c2.685,-5.459 4.946,-11.076 6.672,-16.675c3.112,-10.095 4.523,-20.156 3.358,-29.078Zm11.207,11c-0.129,4.909 -0.734,9.374 -1.488,12.597c-1.758,7.513 -6.287,16.558 -12.663,25.807c-0.984,1.983 -2.021,3.946 -3.106,5.879c2.669,-2.921 5.176,-5.94 7.444,-8.999c7.629,-10.284 12.714,-20.947 11.422,-29.778c-0.292,-1.993 -0.839,-3.824 -1.609,-5.506Zm-95.331,-7.354c4.349,-4.237 9.226,-8.259 13.979,-11.74c12.417,-9.096 29.629,-18.66 42.37,-30.016c11.556,-10.298 19.504,-22.033 14.598,-36.709c-1.435,-4.291 -5.537,-8.37 -10.872,-9.282c-5.613,-0.96 -11.532,0.867 -17.206,3.329c-6.368,2.764 -12.43,6.405 -17.511,8.818c-5.88,2.791 -14.396,6.701 -21.387,11.314c-1.848,1.22 -3.594,2.477 -5.127,3.776l0.097,0.127c0.104,0.145 0.743,1.752 0.743,1.752c0,0 -0.051,-0.143 -0.075,-0.202c0.415,0.981 0.409,2.036 0.062,2.961c0.118,11.668 1.205,23.244 1.205,34.882c0,7.094 -0.333,14.071 -0.876,20.99Zm78.716,-18.765c-0.276,-0.182 -0.56,-0.352 -0.854,-0.512c-2.712,-1.474 -6.155,-2.006 -10.466,-1.392c-3.712,0.529 -7.758,1.564 -11.947,2.968c8.146,0.089 16.323,1.136 23.562,3.382c0.859,0.267 1.706,0.55 2.538,0.85c-0.777,-1.858 -1.718,-3.628 -2.833,-5.296Z" style="fill:#ffd700;"/><path d="M355.001,389.447c-3.403,0.703 -6.68,1.819 -10.137,2.972c-1.108,0.369 -3.254,1.296 -3.254,1.296c-1.762,0.765 -2.731,2.674 -2.309,4.548c0.422,1.873 2.116,3.182 4.036,3.118c-0,0 3.764,-0.131 7.845,-0.914c0.234,1.151 0.544,2.437 0.899,3.864c-0.197,0.186 -0.371,0.365 -0.504,0.521c-0.598,0.699 -0.851,1.351 -0.949,1.674c-0.221,0.732 -0.201,1.358 -0.117,1.85c0.197,1.167 0.793,2.028 1.685,2.641c0.12,0.083 0.524,0.383 1.166,0.562l0.004,0.039l0.075,0.787c-0.682,6.02 -1.44,12.031 -1.937,17.996c-1.037,12.446 -0.295,24.835 0.518,37.166c-0.203,2.273 -0.383,4.54 -0.524,6.797c-0.425,6.807 -1.408,16.769 0.421,23.696c-0.052,1.612 -0.106,3.033 -0.161,4.18l-0.187,0.163c-1.145,0.339 -2.102,0.638 -2.771,0.851c-1.706,-0.278 -3.111,-0.461 -3.841,-0.461l-2.926,-0c-2.059,-0 -3.782,1.563 -3.981,3.613c-0.199,2.05 1.191,3.916 3.212,4.312c0,0 3.8,0.731 7.736,0.694c3.642,0.757 8.497,1.982 11.363,2.322c2.189,0.259 3.795,-0.075 4.522,-0.438c1.357,-0.679 1.859,-1.674 2.102,-2.469c0.292,-0.954 0.266,-1.961 -0.248,-2.996c-0.078,-0.157 -0.179,-0.337 -0.313,-0.526c0.264,-0.016 0.52,-0.023 0.766,-0.023c-0.057,0 -0.212,-0.007 -0.212,-0.007c0,0 1.801,0.055 2.456,-0.148c0.7,-0.217 1.271,-0.577 1.723,-1.01c0.672,-0.645 1.141,-1.469 1.273,-2.551c0.078,-0.637 0.072,-1.529 -0.492,-2.658c-0.861,-1.72 -2.259,-2.69 -3.947,-3.133c-1.205,-0.317 -2.647,-0.248 -3.727,-0.248c-0.75,0 -1.629,0.11 -2.571,0.306c-0.243,-1.55 -0.45,-2.808 -0.45,-3.327c0,-5.043 -0.205,-10.097 -0.492,-15.159c-0.056,-2.35 -0.093,-4.707 -0.093,-7.074c0,-4.804 0.123,-9.682 0.334,-14.592c0.879,-8.794 1.748,-17.651 1.787,-26.455c0.255,-2.992 0.521,-5.964 0.788,-8.907c0.742,-8.161 0.017,-16.74 0.017,-24.935l-0,-0.499l0.009,-0.182l1.256,0l0,-8l-1.85,0l-0,-2.436l-8,0l-0,3.18Z" style="fill:#ffd700;"/><path d="M414.782,452.877c1.073,1.569 2.371,3.316 3.837,5.172c9.516,12.037 26.232,28.857 31.035,31.259c1.672,0.836 8.979,5.677 14.661,9.504c0.861,0.698 2.414,1.955 3.852,3.017c0.823,1.012 1.561,1.836 2.18,2.415c3.192,2.985 6.149,1.875 7.327,0.697c1.517,-1.517 1.623,-3.133 1.037,-4.701c-0.278,-0.742 -0.851,-1.582 -1.733,-2.262c-0.158,-0.122 -0.345,-0.247 -0.544,-0.366c-0.262,-0.324 -0.594,-0.634 -1.009,-0.922c-0.52,-0.362 -1.387,-0.954 -2.486,-1.698c-3.487,-4.618 -8.074,-11.828 -11.631,-17.756c-4.266,-7.111 -10.194,-13.366 -16.824,-18.894c-0.306,-1.769 -0.468,-3.622 -0.842,-5.37c-0.658,-3.08 -1.797,-5.9 -3.998,-8.1c-0.598,-0.599 -1.23,-1.121 -1.89,-1.573c0.839,-1.614 1.721,-3.255 2.601,-4.916c5.394,-10.182 10.389,-21.085 7.947,-30.853c-0.44,-1.76 -1.333,-3.413 -2.476,-4.995c-0.19,-0.263 -0.388,-0.524 -0.592,-0.782c-3.833,-8.87 -12.27,-14.699 -23.83,-12.387c-9.166,1.833 -15.185,10.46 -18.315,22.826c-6.363,25.138 -1.618,66.058 -0.088,79.831c1.157,10.407 3.527,20.625 4.681,31.009c0.233,2.101 0.574,6.316 0.574,6.316c0.173,2.139 2.003,3.761 4.148,3.674c2.145,-0.086 3.839,-1.85 3.839,-3.996l-0,-31.594c-0,-14.871 -1.131,-29.705 -1.461,-44.555Zm18.085,6.547c0.04,0.157 0.086,0.313 0.138,0.468c0.817,2.454 3.499,5.485 6.853,8.81l0.552,0.54c-0.704,-1.125 -1.346,-2.251 -1.906,-3.371c-0.479,-0.956 -0.843,-1.984 -1.136,-3.054c-1.472,-1.167 -2.976,-2.298 -4.501,-3.393Zm-0.679,-22.712c-2.306,1.268 -4.639,2.477 -6.693,3.9c1.288,-0.042 2.584,-0.053 3.851,0.034c0.251,0.017 0.5,0.038 0.748,0.063l0.278,-0.544c0.586,-1.139 1.197,-2.291 1.816,-3.453Zm-8.491,-38.114c-0.709,0.641 -1.649,1.03 -2.678,1.03c-0.77,0 -1.489,-0.217 -2.099,-0.595c-0.313,0.232 -0.617,0.482 -0.911,0.749c0.356,0.621 0.594,1.419 0.609,2.44c0.057,3.871 -3.307,25.165 -3.552,29.331c-0.126,2.139 -0.217,4.278 -0.276,6.416l0.061,-0.017l2.308,-0.822c3.626,-3.557 8.825,-5.927 13.546,-8.783c3.602,-2.18 6.964,-4.649 8.081,-9.116c1.175,-4.7 0.899,-9.588 -0.674,-13.587c-0.923,-1.135 -1.883,-2.267 -2.693,-3.443c-0.334,-0.189 -2.027,-1.135 -3.335,-1.638c-2.468,-0.951 -6.781,-1.705 -8.387,-1.965Z" style="fill:#ffd700;"/><path d="M534.269,377.123c-17.805,0.854 -34.843,6.085 -52.1,9.92c-0.47,0.104 -1.382,0.238 -2.565,0.381c-2.113,0.073 -4.278,0.109 -6.514,0.109c-1.281,-0 -3.713,-0.211 -6.168,-0.298c-0.832,-0.391 -1.802,-0.497 -2.757,-0.234c-0.29,0.08 -0.564,0.161 -0.821,0.242l-0.454,0.028c-2.603,0.205 -4.56,1.079 -5.5,2.019c-0.756,0.756 -1.654,2.553 -1.826,5.209c-0.368,5.685 1.406,17.49 2.03,19.362c0.8,2.398 2.213,3.022 2.817,3.25c1.047,0.394 2.052,0.352 3.015,-0.04c0.677,-0.276 1.454,-0.789 2.047,-1.774c0.282,-0.47 0.623,-1.349 0.8,-2.415c0.214,-1.287 0.286,-3.001 0.286,-3.212c0,-1.614 -0.068,-3.774 -0.16,-5.924c1.033,0.155 2.027,0.045 2.911,-0.308c3.266,-1.307 6.423,-3.239 9.638,-5.04c2.428,-1.36 4.887,-2.655 7.52,-3.328c2.624,-0.191 5.19,-0.444 7.732,-0.761c3.527,0.074 7.091,0.628 10.675,1.331c-0.091,1.167 -0.16,2.434 -0.207,3.791c-0.81,23.42 4.208,76.163 4.208,88.639c-0,8.589 0.249,17.497 0.421,26.189c-1.682,5.016 -4.208,7.658 -7.721,11.093c-1.731,0.412 -3.438,1.012 -5.116,1.851c-1.178,0.589 -3.875,0.768 -3.875,0.768c-2.016,0.202 -3.562,1.878 -3.601,3.904c-0.039,2.025 1.442,3.759 3.449,4.038l5.033,0.699l0.164,0.087c0.945,0.472 2.136,0.678 3.474,0.418l12.391,1.721c1.233,0.172 2.475,-0.24 3.36,-1.114c0.886,-0.874 1.314,-2.11 1.16,-3.345c-0,0 -0.05,-0.388 -0.119,-0.991c3.213,0.406 6.431,0.808 9.607,0.808c1.514,-0 4.486,-0.706 4.486,-0.706c1.774,-0.447 3.019,-2.04 3.024,-3.869c0.004,-1.83 -1.233,-3.429 -3.005,-3.884c0,-0 -1.866,-0.449 -2.717,-0.874c-3.065,-1.533 -6.002,-3.213 -8.279,-5.231c-1.333,-1.18 -2.44,-2.463 -3.083,-3.941c1.115,-3.884 1.924,-8.241 2.448,-12.903c2.525,-22.454 -1.19,-52.185 -4.791,-66.589c-2.317,-9.268 0.705,-19.528 0.705,-28.869l-0,-9.334c6.716,1.282 13.437,2.097 20.06,0.993c3.334,-0.556 6.22,-1.282 8.614,-2.277l-0.394,7.482c-0.116,2.194 1.559,4.07 3.752,4.203c2.192,0.133 4.082,-1.526 4.233,-3.717l0.238,-1.551c1.592,-3.342 2.106,-10.283 0.649,-15.297l0.271,-5.154c0.81,-0.798 1.271,-1.932 1.18,-3.145c-0.156,-2.087 -1.895,-3.702 -3.988,-3.702l-5.851,0c-3.114,0 -6.912,0.529 -10.786,1.292Zm9.517,11.169l-0.262,0.035c-1.043,0.139 -2.173,0.434 -3.321,0.752c-3.037,0.84 -6.176,1.773 -8.605,1.773c-3.655,0 -7.712,-0.85 -11.51,-1.059c-1.189,-0.065 -2.357,-0.093 -3.441,0.079l-0.128,0.033c6.199,1.267 12.399,2.212 18.517,1.193c2.885,-0.481 5.361,-1.013 7.281,-1.892c0.565,-0.259 1.059,-0.558 1.469,-0.914Z" style="fill:#ffd700;"/><path d="M631.125,402.593c-0.099,8.76 -0.565,18.691 -1.096,28.082c-0.913,1.361 -2.108,2.597 -3.656,3.667c-8.465,0.029 -29.009,0.469 -40.955,5.834c-0.614,0.275 -1.206,0.564 -1.777,0.867c-0.04,-1.024 -0.067,-1.776 -0.067,-2.119c0,-16.594 1.755,-33.067 1.755,-49.731l0,-9.362c0,-2.05 -1.55,-3.768 -3.589,-3.979c-2.04,-0.21 -3.908,1.156 -4.326,3.163l-0.039,0.181c-0.782,0.475 -1.525,1.261 -2.061,2.51c-0.689,1.606 -1.174,5.256 -1.309,9.76c-0.118,3.929 -0.056,8.604 0.051,12.904c-0.169,3.346 -0.371,6.705 -0.791,10.07c-2.985,23.875 -0.031,48.862 -0.031,73.045c-0,7.773 -0.468,15.731 0.625,23.384c0.241,1.686 0.563,5.08 0.563,5.08c0.177,1.85 1.604,3.335 3.446,3.584c1.842,0.249 3.613,-0.803 4.274,-2.54c0,-0 1.432,-4.015 1.432,-6.105c0,-4.7 1.072,-9.382 1.94,-14.099c0.991,-5.382 1.732,-10.802 0.945,-16.305c-1.111,-7.783 -1.96,-15.751 -2.586,-23.779c0.093,-1.671 0.1,-3.856 0.064,-6.124c0.314,-0.333 0.668,-0.648 1.051,-0.949c2.209,-1.734 5.316,-2.982 8.808,-3.965c1.81,-0.509 3.717,-0.941 5.674,-1.306c-0.026,0.807 0.198,1.57 0.515,2.203c0.783,1.566 2.103,2.676 3.974,3.232c1.544,0.459 3.671,0.485 6.107,0.014c3.031,-0.586 6.714,-1.939 10.085,-3.388c2.528,4.525 5.74,8.729 5.74,14.735c-0,10.249 -1.17,20.248 -1.17,30.424c-0,1.605 0.931,13.909 1.144,16.329c0.046,0.524 0.101,0.832 0.112,0.883c0.366,1.718 1.414,2.308 1.664,2.478c0.908,0.617 1.821,0.761 2.675,0.669c0.807,-0.086 1.647,-0.392 2.403,-1.149c0.446,-0.445 0.714,-1.28 0.875,-2.078c0.367,-0.455 0.638,-0.997 0.778,-1.601c0,0 1.274,-5.642 1.274,-8.51c-0,-5.035 0.113,-10.08 0.24,-15.131c0.278,-1.963 0.579,-3.93 0.884,-5.909c3.205,-20.837 3.258,-41.948 6.435,-62.603c1.95,-12.669 0.047,-24.293 0.047,-36.298c-0,-1.847 -0.766,-5.17 -4.585,-5.17c-1.328,0 -2.302,0.433 -3.05,1.013l-0.104,0.086c-0.149,-0.19 -0.301,-0.36 -0.454,-0.512c-1.079,-1.08 -2.252,-1.288 -3.32,-1.169c-0.915,0.102 -2.17,0.492 -3.064,1.99c-0.231,0.388 -0.646,1.489 -0.825,2.949c-0.258,2.094 -0.246,5.233 -0.085,5.879c1.015,4.059 2.806,6.843 2.806,11.316c0,2.364 0.236,4.909 0.554,7.55Zm-2.383,40.035l-0.917,0.127l-0.198,0.106l-0.259,0.135c0.568,1.058 1.156,2.106 1.733,3.16l0.13,-2.107l0.091,-1.495l-0.58,0.074Z" style="fill:#ffd700;"/><path d="M674.027,376.337c-2.354,-0.181 -5.157,0.327 -8.541,1.455c-1.095,0.365 -3.111,1.521 -3.111,1.521c-1.653,0.977 -2.378,2.99 -1.729,4.797c0.649,1.806 2.49,2.897 4.386,2.598c0,0 5.976,-0.959 8.834,-1.912l0.442,-0.145c0.445,0.363 0.79,0.928 1.151,1.65c0.191,0.381 0.328,0.796 0.419,1.24c-0.015,1.241 -0.019,2.582 -0.015,3.978c-0.105,0.795 -0.25,1.619 -0.407,2.457c-1.126,6.006 -3.473,12.538 -3.905,16.423c-2.52,22.678 2.442,45.741 -0.574,68.367c-1.425,10.687 -2.112,22.111 -0.719,32.841l-0.14,0.124c-3.491,1.49 -8.529,3.167 -11.981,4.46c-2.773,1.039 -4.741,2.082 -5.283,2.59c-1.365,1.277 -1.456,2.658 -1.337,3.601c0.148,1.171 0.69,2.697 2.852,3.418c3.134,1.044 6.769,0.719 10.712,-1.035c2.563,-1.14 5.315,-2.922 8.172,-5.228c0.882,0.901 2.16,1.352 3.455,1.157c1.712,-0.257 3.064,-1.588 3.349,-3.295c-0,-0 0.183,-1.126 0.352,-2.478c8.624,-6.525 17.409,-17.819 23.433,-25.565c9.167,-11.785 18.229,-26.765 22.337,-41.142c2.209,-7.73 2.572,-46.303 -1.473,-62.777c-0.861,-3.506 -2,-6.141 -3.198,-7.656c-0.973,-1.231 -2.077,-1.963 -3.176,-2.329c-1.616,-0.539 -3.203,-1.008 -4.766,-1.411c-2.527,-1.965 -5.549,-2.28 -8.426,-1.66l-0.23,0.053c-10.44,-1.173 -20.178,0.541 -30.883,3.903Zm22.157,3.795c-3.76,0.149 -7.483,0.688 -11.273,1.532c-0.059,0.859 -0.395,1.675 -0.947,2.324c-0.057,0.975 -0.094,2.164 -0.116,3.498c0.12,1.342 0.107,2.779 -0.02,4.276c0.029,8.216 0.379,18.591 0.379,20.834c0,23.382 -0.585,46.819 -0.585,70.209c0,5.612 -0.961,11.003 -1.78,16.419c16.908,-20.672 33.66,-51.252 35.375,-61.543c2.983,-17.897 -1.931,-38.842 -7.455,-55.415c-0.125,-0.375 -0.253,-0.707 -0.395,-0.992c-1.28,-0.274 -2.544,-0.498 -3.794,-0.676c-1.146,0.473 -2.289,1.23 -2.643,1.474c-0.425,0.428 -0.955,0.765 -1.565,0.969c-1.43,0.477 -2.413,0.083 -2.92,-0.145c-1.235,-0.556 -1.97,-1.492 -2.26,-2.759l-0.001,-0.005Z" style="fill:#ffd700;"/><path d="M781.062,353.353c-1.641,8.778 -3.442,17.539 -5.303,26.225c-7.07,32.994 -16.719,67.046 -27.382,99.036l-0.764,2.285c-2.234,4.96 -4.485,9.919 -6.703,14.908c-0.831,1.87 -2.54,6.209 -4.126,10.076c-3.094,4.862 -6.815,9.002 -11.56,11.374c-3.01,1.505 -8.319,5.722 -8.319,5.722c-1.324,1.063 -1.834,2.845 -1.271,4.447c0.562,1.602 2.075,2.674 3.773,2.674l1.756,0c2.769,0 6.03,0.766 8.931,0.559c4.295,-0.306 8.099,-2.044 10.075,-7.974c0.631,-1.893 0.253,-3.277 -0.312,-4.273c-0.08,-0.14 -0.167,-0.277 -0.26,-0.41c0.183,-0.157 0.365,-0.339 0.544,-0.55c0.319,-0.375 0.938,-1.385 1.621,-2.871c0.59,-1.283 1.336,-3.049 2.118,-4.951c4.918,-7.899 8.371,-17.446 11.185,-25.798c3.072,-6.82 6.112,-13.644 8.99,-20.552c12.035,-28.884 18.689,-60.575 22.51,-91.144c0.45,-3.603 0.965,-7.227 1.475,-10.863c1.66,6.004 3.636,11.952 5.336,17.902c3.292,11.521 7.241,22.881 11.299,34.191c0.332,1.112 0.67,2.223 1.011,3.331c0.406,1.321 1.242,3.428 2.401,6.144c5.066,14.041 10.064,28.065 13.945,42.294c1.62,5.941 6.699,26.198 12.519,39.286c2.949,6.632 6.414,11.456 9.444,12.97c1.567,0.784 3.963,0.49 5.202,-0.749c0.947,-0.946 1.706,-2.383 1.94,-4.402c0.287,-2.472 -0.271,-6.398 -1.638,-11.305c-5.88,-21.101 -26.56,-63.503 -33.864,-80.682c-1.084,-3.008 -2.171,-6.016 -3.25,-9.027c-7.411,-24.639 -13.068,-50.132 -17.663,-75.406c-0.196,-1.078 -1.172,-7.483 -2.892,-10.023c-1.259,-1.86 -2.932,-2.622 -4.554,-2.622c-1.148,-0 -2.046,0.343 -2.773,0.84c-0.967,0.661 -1.713,1.67 -2.033,3.079c-0.185,0.814 -0.204,1.898 -0.072,3.047c0.093,0.807 0.293,1.679 0.293,2.299c0,6.963 -0.717,13.953 -1.629,20.913Zm-40.248,160.717l-0.001,0.002l0.022,0.123l-0.009,-0.069l-0.012,-0.056Z" style="fill:#ffd700;"/><path d="M838.962,507.492c-0.707,0.068 -1.405,0.324 -2.014,0.781c-1.19,0.893 -1.755,1.292 -1.854,1.368c-0.68,0.521 -1.091,1.085 -1.329,1.63c-1.208,0.484 -2.152,1.547 -2.431,2.909c-0.428,2.087 0.854,4.143 2.917,4.676l2.353,0.895c0.279,0.681 0.751,1.291 1.397,1.745c1.807,1.268 4.304,0.831 5.572,-0.976c0.183,-0.262 0.34,-0.523 0.47,-0.785c1.536,0.026 3,-0.028 4.154,-0.22c1.386,-0.232 3.727,-1.271 5.144,-2.758c1.62,-1.699 2.219,-3.815 1.503,-5.963c-0.702,-2.106 -1.908,-3.465 -3.331,-4.344c-1.842,-1.138 -4.209,-1.445 -6.706,-1.009c-1.964,0.342 -4.11,1.214 -5.845,2.051Z" style="fill:#fff;"/><path d="M783.972,427.465c-3.596,1.982 -7.111,4.43 -9.989,6.539c-1.369,0.1 -2.561,0.181 -3.501,0.273c-1.588,0.157 -2.72,0.414 -3.292,0.65c-0.684,0.282 -1.158,0.644 -1.488,0.969c-1.337,1.313 -1.577,2.792 -1.02,4.369c0.053,0.151 0.118,0.31 0.201,0.475c-0.604,0.703 -0.927,1.424 -1.076,2.026c-0.222,0.9 -0.156,1.753 0.139,2.552c0.318,0.861 0.922,1.793 2.234,2.449c0.566,0.284 1.432,0.565 2.624,0.418c0.833,-0.104 2.548,-0.679 4.77,-1.768c0.985,-0.483 2.112,-1.071 3.336,-1.739l1.018,0.008c1.788,0.018 3.316,-1.142 3.844,-2.756l0.087,-0.051l1.473,-0.869c5.195,-0.736 10.944,-1.991 15.679,-4.359c0.308,-0.154 2.177,-1.03 3.54,-1.988c1.056,-0.741 1.856,-1.601 2.274,-2.32c1.201,-2.068 0.954,-3.976 -0.679,-5.609c-0.148,-0.148 -0.3,-0.291 -0.455,-0.428c0.602,-1.1 0.639,-2.076 0.542,-2.781c-0.172,-1.258 -0.787,-2.287 -1.957,-3.013c-0.519,-0.323 -1.266,-0.646 -2.33,-0.675c-0.82,-0.022 -2.546,0.268 -5.298,1.3c-2.827,1.06 -5.866,2.323 -8.576,3.678c-1.099,0.55 -1.835,1.54 -2.1,2.65Z" style="fill:#fff;"/><path d="M937.456,215.35c-0.545,0.552 -1.14,1.259 -1.725,2.063l-0.008,0.011c-2.565,3.087 -5.29,6.467 -7.495,9.303c-1.522,1.442 -3.096,2.977 -4.011,4.1c-1.318,1.619 -1.693,3.136 -1.693,3.906c0,1.099 0.374,1.882 0.801,2.465c0.622,0.847 1.48,1.418 2.605,1.616c0.593,0.104 1.394,0.107 2.281,-0.225c0.936,-0.35 2.318,-1.483 2.812,-2.223c0.563,-0.845 1.479,-2.092 2.61,-3.569c1.18,-1.169 2.439,-2.431 3.389,-3.412c-0.203,1.037 -0.429,2.127 -0.677,3.265c-6.985,32.059 -31.014,101.059 -35.709,111.622c-1.531,3.446 -8.335,19.947 -14.532,28.783c-0.329,0.469 -0.714,0.947 -1.109,1.404c-3.601,-5.521 -8.674,-11.859 -15.61,-20.529c-8.764,-10.955 -16.973,-23.616 -21.562,-37.382c-0.365,-1.097 -1.216,-2.914 -2.318,-5.034c0.012,-0.077 0.02,-0.155 0.026,-0.234c0.129,-1.717 -0.41,-5.553 -1.134,-8.763c0.1,-0.746 0.216,-1.486 0.35,-2.214c0.478,-2.604 1.131,-5.076 2.137,-7.041c0.99,-1.41 1.953,-2.684 2.898,-3.629l2.926,-2.926l-5.657,-5.656l-4.096,4.095c-0.881,0.882 -1.678,1.937 -2.39,3.131c-0.672,-0.502 -1.503,-0.792 -2.387,-0.792l-1.755,-0c-3.345,-0 -5.785,1.846 -7.17,4.69l-4.835,2.901c-1.438,0.863 -2.185,2.531 -1.871,4.179c0.314,1.647 1.622,2.924 3.277,3.197c0,0 1.557,0.246 3.258,0.218c0.078,0.188 0.163,0.371 0.252,0.55c0.498,0.996 1.232,1.965 2.168,2.451c0.458,0.238 1.03,0.481 1.75,0.532c0.56,0.885 1.134,1.823 1.702,2.776c0.263,1.295 0.59,2.726 0.977,4.272c0.094,2.677 0.327,5.087 0.641,6.975c2.354,14.122 9.045,31.507 19.059,44.837c0.558,0.742 1.125,1.471 1.705,2.187c1.463,2.561 2.957,4.969 4.468,7.17c4.072,5.931 8.336,10.392 12.404,12.622c3.053,1.673 6.073,2.225 8.979,1.617c2.539,8.209 1.53,17.411 -0.993,35.072c-2.109,14.766 -2.24,30.205 -4.105,45.121c-0.161,1.287 -0.355,3.23 -0.587,5.596c-0.871,5.137 -1.69,10.283 -2.338,15.467c-0.648,5.182 -2.977,10.44 -4.506,15.028c-0.173,0.517 -0.514,4.115 -0.485,6.554c0.018,1.586 0.291,2.825 0.474,3.252c0.793,1.852 2.214,2.333 3.204,2.469c1.025,0.141 2.261,0.007 3.43,-1.161c1.615,-1.615 3.338,-6.094 4.502,-12.006c1.717,-8.727 2.888,-20.898 3.653,-28.602c1.933,-11.423 4.125,-22.789 5.283,-34.372c2.55,-25.499 7.642,-49.336 14.653,-72.789c2.768,-4.846 5.241,-10.298 7.457,-16.112c4.236,-11.118 7.618,-23.539 10.696,-35.071c1.417,-3.526 2.869,-7.067 4.351,-10.625c7.794,-18.704 12.897,-38.884 14.915,-59.063c0.068,-0.684 0.172,-1.494 0.295,-2.36c1.315,-2.946 1.48,-9.137 1.48,-9.137c0.003,-0.608 -0.131,-1.187 -0.375,-1.707c0.929,-4.279 1.554,-7.942 1.825,-10.787c0.543,-1.058 1.88,-3.497 3.022,-5.564c0.386,-0.334 0.714,-0.748 0.956,-1.233c1.235,-2.469 1.616,-3.634 1.647,-3.815c0.358,-2.077 -0.707,-3.143 -1.194,-3.604c-0.469,-0.444 -1.009,-0.791 -1.636,-0.973c-0.534,-0.357 -1.09,-0.561 -1.507,-0.652c-0.632,-0.138 -2.383,-0.417 -4.301,1.501c-1.173,1.174 -3.217,3.5 -5.547,6.264Zm-44.66,168.397c-0.741,0.58 -1.496,1.121 -2.266,1.62l0.248,0.757c0.285,0.906 0.534,1.823 0.747,2.76l0.327,-1.353c0.175,-0.71 0.35,-1.42 0.526,-2.129l0.418,-1.655Zm-33.381,-29.629c1.448,2.961 2.947,5.825 4.479,8.519c2.921,3.571 6.12,6.753 9.584,9.321c-2.824,-3.697 -6.246,-7.914 -10.34,-13.031c-1.256,-1.569 -2.499,-3.172 -3.723,-4.809Z" style="fill:#ffd700;"/><path d="M876.268,504.796l-0.138,0.114l-0.545,0.431c-0.256,0.112 -0.503,0.253 -0.738,0.423c-0.414,0.3 -0.801,0.64 -1.17,1.006c-2.81,2.026 -5.58,3.713 -6.582,4.367c-1.306,0.854 -1.746,1.745 -1.819,1.897c-0.469,0.966 -0.455,1.806 -0.341,2.449c0.168,0.945 0.618,1.735 1.363,2.362c0.131,0.11 0.291,0.238 0.485,0.362c0.161,0.346 0.371,0.668 0.62,0.966c0.538,0.647 1.537,1.566 3.539,1.566c1.485,0 3.808,-0.889 6.181,-2.703c0.747,-0.571 1.52,-1.228 2.288,-1.934c0.112,-0.071 0.225,-0.148 0.339,-0.229c2.329,-1.658 6.732,-6.072 9.453,-9.018c1.618,-1.75 2.678,-3.143 2.835,-3.446c1.289,-2.499 -0.145,-4.14 -0.715,-4.71c-0.941,-0.941 -2.96,-1.789 -5.541,-0.819c-0.842,-0.516 -1.848,-0.73 -3.042,-0.443c-0.513,0.123 -1.305,0.431 -2.084,1.17c-0.588,0.558 -1.515,1.84 -1.926,2.457c-0.855,1.282 -1.678,2.498 -2.462,3.732Z" style="fill:#fff;"/><path d="M579.116,377.543c-1.943,-0.018 -4.509,-1.059 -5.01,-1.249c-0.325,-0.123 -0.521,-0.172 -0.556,-0.18c-2.538,-0.634 -3.768,0.994 -4.023,1.296c-0.623,0.735 -0.947,1.593 -0.947,2.584c-0,2.017 0.651,3.416 1.514,4.416c1.137,1.32 3.044,2.09 5.413,2.085c0.045,0.606 0.148,1.228 0.305,1.837c0.555,2.146 1.822,4.022 2.786,4.765c0.885,0.681 1.804,0.949 2.626,0.988c2.205,0.104 4.08,-1.602 4.184,-3.807c0.065,-1.38 -0.579,-2.632 -1.611,-3.4l-0.07,-0.239c2.262,-1.153 6.089,-3.145 6.868,-3.821c1.026,-0.89 1.307,-1.831 1.415,-2.339c0.323,-1.515 -0.121,-2.728 -1.093,-3.701c-0.732,-0.732 -1.756,-1.294 -3.151,-1.414c-1.491,-0.129 -4.321,0.681 -7.304,1.75c-0.4,0.143 -0.863,0.289 -1.346,0.429Z" style="fill:#fff;"/><path d="M627.102,383.216c2.277,2.514 2.799,4.391 4.518,7.338c1.113,1.906 3.564,2.551 5.471,1.439c1.907,-1.113 2.552,-3.565 1.439,-5.471c-1.32,-2.262 -2.103,-3.972 -3.208,-5.692c2.014,-0.675 3.623,-1.101 5.496,-1.101c2.208,0 4,-1.792 4,-4c0,-2.207 -1.792,-4 -4,-4c-3.737,0 -6.694,1.111 -12.121,2.92c-0.81,0.27 -2.464,0.701 -2.464,0.701c-1.985,0.521 -3.253,2.459 -2.937,4.486c0.298,1.908 1.909,3.313 3.806,3.38Z" style="fill:#fff;"/><path d="M585.201,515.689c0.279,-0.045 0.538,-0.078 0.771,-0.102c0.419,0.151 0.871,0.232 1.341,0.232c2.208,-0 4,-1.792 4,-4c0,-1.528 -0.649,-3.54 -3.484,-4.138c-0.989,-0.209 -3.627,-0.065 -6.706,0.743c-4.027,1.057 -8.902,3.137 -11.372,5.607c-0.393,0.393 -2.146,2.365 -2.528,3.457c-0.684,1.956 -0.062,3.487 0.977,4.526c0.33,0.33 1.576,1.497 3.839,1.1c1.615,-0.283 8.782,-2.671 9.792,-2.818c2.185,-0.318 3.7,-2.35 3.382,-4.535l-0.012,-0.072Zm-1.701,-2.661c-0.122,-0.381 -0.187,-0.788 -0.187,-1.209c0,0.42 0.058,0.823 0.182,1.206l0.005,0.003Z" style="fill:#fff;"/><path d="M637.436,505.955c0.032,-0.113 0.054,-0.214 0.064,-0.299c0.196,-1.618 -0.391,-2.815 -1.22,-3.644c-0.496,-0.496 -1.96,-1.486 -4.296,-1.196c-2.535,0.314 -8.141,2.184 -9.783,3.379c-2.512,1.828 -2.234,4.151 -1.624,5.461c0.33,0.71 1.626,2.673 5.508,2.673c2.156,0 4.249,0.388 6.203,0.388c0.374,0 2.228,-0.387 3.172,-0.717c2.085,-0.727 3.186,-3.01 2.459,-5.095c-0.121,-0.345 -0.284,-0.663 -0.483,-0.95Z" style="fill:#fff;"/><path d="M32.936,25.932c-4.107,6.193 -7.047,13.152 -11.649,19.288c-2.106,2.808 -10.467,9.457 -15.084,14.595c-1.796,1.999 -3.089,3.867 -3.67,5.317c-0.501,1.251 -0.608,2.382 -0.476,3.33c0.304,2.186 2.326,3.715 4.513,3.411c1.965,-0.273 3.398,-1.933 3.447,-3.853c0.248,-0.377 1.25,-1.871 2.136,-2.857c4.773,-5.311 13.357,-12.241 15.534,-15.143c2.299,-3.066 4.198,-6.329 6.028,-9.603c0.329,6.724 0.658,13.371 -0.296,20.045c-3.283,22.979 1.507,47.99 1.507,70.698c0,21.908 2.729,44.711 0.536,66.641c-0.649,6.49 -3.316,12.589 -4.115,18.982c-1.729,13.83 2.763,54.566 5.719,69.351c2.483,12.413 3.619,31.826 -0.388,43.846c-0.106,0.32 -0.522,1.694 -0.762,3.056c-0.451,0.124 -0.907,0.235 -1.345,0.321c-8.204,1.606 -21.005,1.857 -26.283,1.492c-0.559,-0.323 -1.231,-0.702 -1.692,-0.917c-0.793,-0.37 -1.458,-0.496 -1.806,-0.525c-1.395,-0.118 -2.328,0.409 -2.921,0.89c-0.904,0.733 -1.494,1.734 -1.494,3.136c0,1.061 0.422,2.079 1.172,2.829l1.031,1.031c0.304,0.304 0.655,0.557 1.04,0.75c0.307,0.153 1.034,0.364 2.109,0.538c2.948,1.462 6.386,1.947 9.993,1.947c8.455,-0 15.302,-1.387 23.488,1.341c1.954,0.652 5.202,0.927 9.174,0.856c7.913,-0.143 19.155,-1.466 27.362,-1.64c2.278,-0.049 4.3,-0.011 5.897,0.197c0.599,0.077 1.408,0.297 1.626,0.359c1.57,1.335 3.932,1.261 5.415,-0.222c1.561,-1.561 1.561,-4.096 -0,-5.657c-0.772,-0.771 -1.949,-1.484 -3.575,-1.938c-2.164,-0.604 -5.529,-0.823 -9.534,-0.737c-7.064,0.15 -16.367,1.145 -23.886,1.517c-3.16,0.156 -5.959,0.255 -7.996,0.048c0.607,-0.371 1.114,-0.759 1.514,-1.151c1.293,-1.266 1.847,-2.706 1.847,-4.193c-0,-1.907 -0.941,-2.906 -1.994,-3.476c3.45,-13.211 2.39,-32.581 -0.147,-45.267c-2.848,-14.241 -7.291,-53.468 -5.626,-66.79c0.808,-6.457 3.481,-12.622 4.137,-19.178c2.219,-22.192 -0.496,-45.267 -0.496,-67.437c0,-22.345 -4.818,-46.955 -1.587,-69.567c1.492,-10.442 0.04,-20.823 0.04,-31.507l0,-6.188c0,-2.144 -1.691,-3.907 -3.834,-3.996c-2.143,-0.089 -3.974,1.527 -4.152,3.664l-0.457,2.366Z" style="fill:#fff;"/><path d="M95.853,243.983c-0.118,-0.163 -0.772,-1.075 -1.1,-1.682c-0.878,-1.622 -1.722,-3.411 -2.686,-4.729c-1.599,-2.187 -3.605,-3.354 -5.861,-3.354c-2.207,0 -4,1.793 -4,4c0,1.947 1.393,3.57 3.236,3.927c0.34,0.551 1.354,2.208 1.909,3.273c1.329,2.551 2.966,4.743 4.802,5.66c12.092,6.047 28.261,5.021 34.244,-6.945c4.096,-8.191 -0.248,-15.226 -8.532,-21.777c-4.901,-3.877 -11.145,-7.708 -16.632,-11.969c-4.805,-3.731 -9.083,-7.724 -10.716,-12.625c-1.235,-3.704 -0.701,-8.773 0.741,-13.62c1.482,-4.981 3.971,-9.767 7.026,-12.631c1.381,-1.295 2.816,-2.239 4.376,-2.069c1.726,0.188 3.273,1.635 4.936,4.176c1.208,1.847 3.69,2.365 5.537,1.157c1.847,-1.209 2.366,-3.69 1.157,-5.538c-3.411,-5.212 -7.223,-7.363 -10.765,-7.748c-3.707,-0.403 -7.43,1.108 -10.713,4.186c-3.937,3.692 -7.312,9.767 -9.222,16.186c-1.949,6.554 -2.332,13.423 -0.663,18.43c1.7,5.1 5.397,9.606 10.044,13.662c6.156,5.374 14.014,9.997 19.931,14.677c2.277,1.801 4.246,3.587 5.579,5.474c1.404,1.987 1.947,4.08 0.761,6.451c-1.88,3.76 -5.452,5.569 -9.436,6.069c-4.539,0.57 -9.611,-0.496 -13.953,-2.641Z" style="fill:#fff;"/><path d="M180.551,234.529c-0.269,-0.072 -1.296,-0.359 -1.851,-0.644c-1.345,-0.693 -2.55,-1.624 -3.031,-2.105c-9.153,-9.153 -11.872,-20.106 -11.877,-31.851c-0.005,-11.339 2.457,-23.394 4.573,-35.443c0.855,-0.467 1.542,-1.246 1.874,-2.243c0.934,-2.807 -0.183,-5.151 -1.217,-6.182c-0.669,-0.665 -1.435,-1.049 -2.186,-1.225c-1.294,-0.304 -2.654,-0.096 -3.883,0.944c-0.647,0.547 -1.484,1.543 -1.793,3.397c-2.302,13.811 -5.374,27.744 -5.368,40.755c0.006,13.859 3.42,26.705 14.221,37.505c1.153,1.153 4.713,3.858 8.022,4.749c2.132,0.574 4.188,0.455 5.877,-0.39c2.703,-1.351 4.912,-3.745 7.735,-5.157c1.975,-0.987 2.777,-3.392 1.789,-5.366c-0.987,-1.975 -3.392,-2.776 -5.366,-1.789c-2.748,1.374 -4.914,3.678 -7.519,5.045Z" style="fill:#fff;"/><path d="M144.77,187.884c1.085,-0.231 9.495,-2.034 11.082,-2.714c7.842,-3.361 16.954,-8.959 25.24,-8.959c2.208,0 4,-1.792 4,-4c-0,-2.208 -1.792,-4 -4,-4c-9.272,0 -19.616,5.845 -28.391,9.606c-1.531,0.656 -8.77,2.002 -10.128,2.368c-2.071,0.557 -2.685,1.982 -2.789,2.197c-0.757,1.559 -0.536,2.958 0.449,4.216c1.099,1.403 2.95,1.873 4.537,1.286Z" style="fill:#fff;"/><path d="M195.233,361.22c0.289,0.913 0.533,1.908 0.596,2.798c0.698,9.773 -0.233,19.655 0.518,29.416c2.219,28.852 4.113,57.859 4.113,86.844c0,10.166 -1.031,20.438 -1.031,30.425c-0,1.442 -0.375,9.119 -0.116,12.83c0.126,1.801 0.56,3.072 0.874,3.601c0.807,1.361 1.928,1.857 2.898,2.027c1.08,0.188 2.412,0.085 3.688,-1.19c1.327,-1.327 1.526,-3.358 0.596,-4.895c0.014,-2.418 0.06,-11.086 0.06,-12.373c-0,-9.987 1.031,-20.259 1.031,-30.425c0,-29.189 -1.902,-58.402 -4.137,-87.458c-0.75,-9.746 0.183,-19.614 -0.514,-29.372c-0.29,-4.06 -2.067,-8.168 -3.145,-9.763c-1.012,-1.495 -2.219,-2.01 -2.806,-2.167c-1.918,-0.511 -3.434,0.071 -4.514,1.737c-0.284,0.438 -0.596,1.076 -0.676,2.006c-0.046,0.544 0.013,1.708 0.587,3.582c0.326,1.067 1.06,1.899 1.978,2.377Zm8.442,159.933c-0.819,-0.008 -1.691,0.293 -2.559,1.161c0.712,-0.712 1.627,-1.1 2.559,-1.161Z" style="fill:#fff;"/><path d="M200.32,365.426c0.873,-0.779 2.117,-1.879 2.415,-2.102c5.137,-3.854 9.762,-8.564 15.289,-12.249c5.848,-3.898 23.124,-16.232 38.248,-21.743c4.575,-1.667 8.917,-2.722 12.596,-2.51c2.734,0.157 5.034,1.075 6.421,3.387c6.169,10.282 3.991,22.081 -1.632,33.483c-4.461,9.046 -11.116,17.842 -18.128,25.572c-3.783,1.532 -7.438,3.506 -10.979,5.782c-10.089,6.485 -19.223,15.441 -27.769,22.918c-5.168,4.522 -11.672,12.361 -14.688,15.979c-0.824,0.686 -1.773,1.537 -2.082,2.053c-1.286,2.152 -0.762,3.988 0.59,5.34c0.2,0.2 3.484,2.525 6.13,-0.486c0.237,-0.268 0.608,-0.712 1.088,-1.291c0.471,-0.357 0.92,-0.705 1.017,-0.802c9.165,-9.165 20.372,-15.234 30.611,-23.426c5.923,-4.738 13.397,-11.428 20.647,-19.254c5.894,-2.134 12.153,-2.95 18.872,-1.606c1.787,0.358 3.511,0.471 5.127,0.76c1.377,0.247 2.658,0.654 3.674,2.178c8.305,12.457 8.326,27.8 3.686,42.652c-7.196,23.035 -25.596,45.012 -43.917,54.172c-13.798,6.899 -28.247,13.866 -40.739,20.112c-1.856,0.928 -3.243,1.931 -3.243,4.609c0,2.208 1.793,4 4,4c1.337,-0 2.521,-0.657 3.247,-1.666c12.392,-6.191 26.67,-13.078 40.313,-19.899c19.966,-9.983 40.133,-33.839 47.975,-58.943c5.386,-17.24 4.975,-35.014 -4.666,-49.475c-2.133,-3.2 -4.655,-4.568 -7.444,-5.294c-1.989,-0.518 -4.165,-0.595 -6.444,-1.051c-4.06,-0.811 -7.986,-0.991 -11.79,-0.65c4.681,-5.957 8.906,-12.296 12.087,-18.746c6.904,-13.998 8.891,-28.513 1.317,-41.137c-4.001,-6.667 -11.471,-8.439 -20.561,-6.606c-17.202,3.469 -40.828,20.149 -48.001,24.932c-5.653,3.768 -10.398,8.564 -15.652,12.505c-0.595,0.446 -3.098,2.497 -4.251,3.723c-0.712,0.758 -1.114,1.462 -1.281,1.873c-0.921,2.266 0.034,3.796 1.135,4.723c0.545,0.459 1.866,1.477 4.236,0.703c1.245,-0.407 2.155,-1.368 2.546,-2.52Zm-3.861,-5.282c-0.347,-0.001 -0.736,0.056 -1.17,0.197c0.388,-0.126 0.782,-0.19 1.17,-0.197Z" style="fill:#fff;"/><path d="M344.335,392.623c-1.264,-1.6 -3.565,-2.005 -5.31,-0.875c-0.196,0.127 -0.484,0.104 -0.771,0.152c-0.551,0.093 -1.131,0.16 -1.701,0.241c-1.057,0.149 -2.085,0.358 -2.993,0.672c-2.144,0.109 -2.848,1.453 -2.997,1.661c-0.766,1.065 -0.923,2.189 -0.623,3.342c0.138,0.531 0.562,2.132 2.653,2.804c0.182,0.058 1.096,0.253 1.837,0.209c0.089,-0.005 0.176,-0.013 0.262,-0.024c4.834,0.005 12.136,0.017 18.535,-1.137c5.259,-0.949 9.914,-2.767 12.738,-5.59c1.561,-1.561 1.561,-4.096 -0,-5.657c-1.561,-1.561 -4.096,-1.561 -5.657,-0c-1.857,1.856 -5.043,2.75 -8.501,3.374c-2.422,0.437 -4.983,0.687 -7.472,0.828Z" style="fill:#fff;"/><path d="M346.51,502.018l-12.304,-1.119c-1.67,-0.151 -3.257,0.754 -3.976,2.269c-0.719,1.515 -0.416,3.317 0.757,4.515c0,-0 3.316,3.079 5.422,3.606c5.314,1.328 12.264,2.614 18.4,2.038c4.773,-0.448 9.073,-2.018 12.166,-5.111c1.561,-1.561 1.561,-4.095 -0,-5.656c-1.561,-1.561 -4.096,-1.561 -5.657,-0c-1.726,1.725 -4.165,2.459 -6.808,2.755l0,-17.603c0,-12.357 0.505,-24.822 0.505,-37.373c0,-7.481 -1.355,-26.416 -1.394,-39.527c-0.013,-4.354 0.514,-9.414 0.661,-10.729c0.847,-0.846 1.307,-2.061 1.143,-3.338c-0.281,-2.19 -2.286,-3.74 -4.476,-3.459c-1.243,0.159 -2.572,0.794 -3.546,2.428c-0.599,1.006 -1.18,2.974 -1.453,5.714c-1.11,11.148 1.065,39.337 1.065,48.911c0,12.551 -0.505,25.016 -0.505,37.373l0,14.306Z" style="fill:#fff;"/><path d="M406.953,393.246c-0.514,-0.413 -1.137,-0.704 -1.833,-0.821c-0.012,-0.003 -4.353,0.079 -4.699,4.153c-0.271,3.204 -1.651,19.844 -2.882,32.151c-2.372,23.717 -6.512,47.193 -3.524,71.095c1.275,10.202 0.144,20.898 2.614,30.776c0.393,1.573 0.95,4.771 0.95,4.771c0.359,2.044 2.22,3.474 4.287,3.294c2.067,-0.18 3.653,-1.91 3.653,-3.985l0,-4.04c0,-12.295 -0.505,-24.975 -0.505,-37.373c0,-13.332 1.169,-26.747 2.52,-40.109c2.758,5.042 7.843,13.058 8.838,14.551c3.411,5.116 39.703,40.149 47.685,47.094c1.279,1.113 2.179,1.678 2.45,1.799c0.711,0.318 1.291,0.362 1.677,0.362c2.208,-0 4,-1.793 4,-4c0,-1.482 -0.807,-2.777 -2.007,-3.467c-0.167,-0.136 -0.532,-0.436 -0.869,-0.729c-7.728,-6.725 -42.977,-40.543 -46.279,-45.497c-0.917,-1.375 -6.377,-10.645 -8.616,-14.454c3.531,-2.975 6.775,-4.33 9.642,-5.814c6.354,-3.289 11.542,-6.803 14.719,-22.687c1.238,-6.192 -2.096,-17.809 -8.182,-25.039c-4.663,-5.539 -10.769,-8.453 -17.207,-6.307c-2.738,0.912 -4.72,2.582 -6.432,4.276Zm1.594,50.068c4.355,-3.856 8.309,-5.593 11.831,-7.416c4.731,-2.449 8.186,-5.324 10.551,-17.151c0.913,-4.565 -1.97,-12.987 -6.457,-18.317c-2.39,-2.839 -5.258,-4.97 -8.557,-3.871c-1.951,0.651 -3.206,2.029 -4.339,3.313c-0.067,14.264 -1.511,28.802 -3.029,43.442Z" style="fill:#fff;"/><path d="M543.74,380.729c-0.292,-0.12 -0.587,-0.239 -0.883,-0.352c-3.221,-1.225 -6.573,-2.069 -10.493,-1.089c-9.532,2.383 -36.631,7.961 -45.493,7.961c-2.979,0 -7.371,0.953 -11.738,1.58c-3.16,0.454 -6.313,0.906 -8.478,-0.046l-0.8,-0.908c-1.022,-1.396 -2.826,-1.975 -4.47,-1.437c-1.644,0.537 -2.756,2.071 -2.756,3.801l-0,3.03c-0,2.334 -0.498,7.315 -0.384,11.259c0.062,2.17 0.332,4.086 0.798,5.395c1,2.808 2.945,3.975 5.038,4.024c2.207,0.053 4.041,-1.697 4.093,-3.904c0.033,-1.369 -0.628,-2.595 -1.662,-3.34c-0.105,-0.882 -0.296,-2.669 -0.283,-3.977c0.018,-1.936 0.136,-3.984 0.239,-5.768c2.154,0.368 4.603,0.371 7.15,0.118c4.772,-0.476 9.948,-1.827 13.253,-1.827c9.237,0 37.499,-5.716 47.433,-8.2c2.729,-0.682 4.931,0.497 7.153,1.37c0.327,0.128 0.654,0.254 0.982,0.376c-0.157,4.085 0.109,8.79 0.857,12.271c0.621,2.895 1.714,5.076 2.841,6.184c1.154,1.135 2.476,1.635 3.864,1.635c2.207,0 4,-1.792 4,-4c-0,-1.587 -0.927,-2.959 -2.268,-3.605c-0.256,-0.836 -0.843,-2.869 -1.035,-4.505c-0.229,-1.947 -0.201,-4.434 -0.081,-6.73c1.903,-0.383 2.907,-1.429 3.484,-2.372c0.664,-1.086 0.921,-2.424 0.587,-3.912c-0.318,-1.416 -1.413,-3.185 -2.539,-4.401c-0.86,-0.93 -1.746,-1.546 -2.22,-1.779c-0.849,-0.417 -1.584,-0.47 -2.093,-0.446c-1.154,0.055 -2.023,0.524 -2.684,1.185c-0.462,0.462 -0.972,1.283 -1.412,2.409Z" style="fill:#fff;"/><path d="M501.053,389.229l-0.001,0l0,22.222c0,12.943 -0.054,26.583 1.546,39.384c3.002,24.012 0.474,50.032 0.474,73.239c0,0.386 0.092,1.16 0.487,2.139c0.137,0.34 0.381,0.981 0.628,1.639c-2.37,0.402 -5.545,0.969 -7.826,1.48c-1.325,0.057 -3.043,-0.148 -3.043,-0.148c-1.915,-0.186 -3.692,1.018 -4.228,2.866c-0.537,1.848 0.319,3.816 2.036,4.684c-0,0 1.467,0.722 2.79,0.942c1.261,0.21 2.445,0.01 3.317,-0.422c0.568,-0.027 1.099,-0.08 1.533,-0.167c4.67,-0.934 10.496,0.268 15.558,-0.197c4.618,-0.424 8.692,-1.987 11.604,-5.87c1.325,-1.766 0.967,-4.276 -0.8,-5.6c-1.766,-1.325 -4.275,-0.966 -5.6,0.8c-1.61,2.147 -4.013,2.65 -6.613,2.768l-0.022,-0.185c-0.236,-1.626 -1.408,-4.429 -1.819,-5.373c0.043,-23.357 2.477,-49.471 -0.538,-73.587c-1.559,-12.479 -1.484,-25.776 -1.484,-38.392l0,-14.388c0.69,-0.534 1.21,-1.296 1.432,-2.208c0.365,-1.49 -0.159,-2.991 -1.233,-3.943l-0.199,-1.636l0,-0.047c0,-2.2 -1.777,-3.987 -3.977,-4c-2.201,-0.012 -3.998,1.755 -4.023,3.955l0.001,0.045Z" style="fill:#fff;"/><path d="M574.552,376.385c-2.969,-0.026 -5.921,0.217 -8.09,0.712c-2.804,0.64 -4.581,1.971 -5.242,2.988c-0.62,0.954 -0.843,1.965 -0.74,3.002c0.1,1.012 0.522,2.221 1.824,3.343c1.672,1.441 4.2,1.253 5.641,-0.419c0.283,-0.328 0.503,-0.689 0.661,-1.069l0.87,-0.152c0.351,-0.055 0.702,-0.109 1.052,-0.163l0.261,-0.036c-1.886,13.518 0.464,29.7 0.464,43.021c-0,15.081 -2.021,29.991 -2.021,44.948c0,5.59 -1.864,23.091 -1.503,34.572c0.123,3.909 0.531,7.196 1.235,9.325c0.247,0.744 0.54,1.39 0.863,1.943c-0.49,0.753 -1.461,2.158 -2.309,2.869c-0.366,0.307 -0.935,0.637 -1.333,0.849l-0.962,-0.014l-0.177,-0.002c-0.103,-0.015 -0.21,-0.025 -0.319,-0.032c-0.741,-0.044 -1.655,0.151 -1.836,0.209c-2.091,0.672 -2.515,2.273 -2.653,2.804c-0.115,0.439 -0.591,4.873 3.7,5.008c1.145,0.332 2.41,0.349 3.732,0.023c3.547,0.001 8.028,-0.131 11.47,-1.104c2.931,-0.827 5.217,-2.29 6.511,-4.232c1.225,-1.837 0.728,-4.322 -1.109,-5.547c-1.837,-1.224 -4.323,-0.727 -5.547,1.11c-0.175,0.262 -0.502,0.392 -0.843,0.548c-0.232,0.106 -0.477,0.2 -0.734,0.285c0.366,-0.849 0.597,-1.653 0.675,-2.351c0.206,-1.852 -0.337,-3.366 -1.374,-4.486c-0.063,-0.181 -0.358,-1.047 -0.482,-1.711c-0.29,-1.56 -0.442,-3.529 -0.512,-5.745c-0.358,-11.398 1.507,-28.772 1.507,-34.321c0,-14.957 2.021,-29.867 2.021,-44.948c-0,-13.365 -2.59,-29.712 -0.371,-43.062l0.427,0.067l0.388,0.075c0.517,0.514 1.478,1.405 2.086,1.8c1.496,0.973 2.891,0.815 3.557,0.633c0.857,-0.234 1.547,-0.695 2.084,-1.355c0.474,-0.582 0.919,-1.398 0.919,-2.601c0,-1.917 -0.973,-3.819 -3.381,-5.08l-0.337,-0.164c-1.85,-2.169 -4.372,-2.961 -6.635,-2.747c-1.217,0.114 -2.403,0.519 -3.438,1.207Zm-11.528,153.365l-0.166,-0.078c0.051,0.026 0.106,0.052 0.166,0.078Z" style="fill:#fff;"/><path d="M626.327,381.877c-0.249,2.434 -0.714,4.846 -0.958,6.063c-1.715,8.576 -3.037,43.391 -3.467,54.066l-0.054,-0.011c-1.484,-0.354 -2.84,-0.707 -3.667,-0.707c-9.679,0 -20.611,1.749 -30.311,0.536c-1.768,-0.221 -5.262,-0.96 -7.603,-1.493c-0.288,-0.141 -0.598,-0.248 -0.927,-0.317c-1.855,-0.389 -2.718,-0.388 -2.811,-0.379c-2.28,0.214 -3.004,1.718 -3.292,2.372c-0.407,0.924 -0.499,1.94 -0.073,3.048c0.182,0.475 0.543,1.261 1.551,1.918c0.091,0.06 0.582,0.377 1.498,0.615c1.544,0.402 7.949,1.835 10.664,2.175c9.968,1.245 21.195,-0.457 31.154,-0.474c0.331,0.092 2.763,0.751 4.267,0.881c1.241,0.107 2.449,0.001 3.56,-0.37c-1.03,12.013 -2.081,23.957 -2.081,35.891c-0,6.808 -0.506,13.754 -0.506,20.707c0,0.132 0.028,0.358 0.075,0.638c-1.473,0.239 -2.646,0.544 -2.646,0.544c-1.728,0.454 -2.945,1.998 -2.983,3.784c-0.038,1.786 1.113,3.38 2.82,3.907c0,-0 2.091,0.624 4.206,0.776c0.269,0.629 0.577,0.938 0.674,1.042c1.033,1.119 2.206,1.381 3.323,1.277c0.784,-0.072 1.704,-0.355 2.539,-1.226c0.249,-0.26 0.634,-0.723 0.911,-1.472c0.237,-0.642 0.597,-2.977 0.597,-3.715c-0,-1.184 -0.316,-2.188 -0.934,-2.998c-0.199,-1.208 -0.497,-2.456 -0.58,-2.794c0.01,-6.874 0.504,-13.74 0.504,-20.47c-0,-23.391 4.04,-46.822 4.04,-70.705c-0,-15.178 0.526,-29.917 0.656,-33.321c0.033,-0.062 0.063,-0.122 0.091,-0.178c0.296,-0.609 1.511,-3.702 -1.948,-5.431c-0.115,-0.058 -0.231,-0.111 -0.346,-0.157c-0.044,-0.364 -0.101,-0.708 -0.171,-1.027c-0.709,-3.217 -2.664,-4.852 -4.829,-5.183c-1.51,-0.23 -3.95,0.178 -6.847,3.076c-0.915,0.915 -1.286,1.913 -1.377,2.882c-0.11,1.178 0.201,2.502 1.307,3.727c0.73,0.809 2.26,1.739 3.974,2.503Z" style="fill:#fff;"/><path d="M663.542,387.055c2.752,1.116 5.819,0.883 8.696,0.291c0.91,-0.188 2.169,-0.403 2.963,-0.533c0.511,2.807 0.389,8.86 0.091,16.35c-0.839,21.049 -3.929,52.667 -5.012,60.246c-1.687,11.808 -3.07,25.037 -3.07,36.929c-0,4.725 -1.01,9.343 -1.01,14.141l-0.001,1.288c-0.438,0.171 -0.872,0.328 -1.304,0.472c-1.09,0.364 -3.711,0.267 -5.568,0.608c-1.856,0.341 -3.285,1.083 -4.077,1.874c-2.338,2.338 -5.211,6.533 -5.211,10.404c-0,2.207 1.792,4 4,4c2.207,-0 4,-1.793 4,-4c-0,-1.637 1.381,-3.229 2.471,-4.345c0.43,-0.069 1.529,-0.236 2.263,-0.298c1.865,-0.156 3.687,-0.332 4.651,-0.653c1.044,-0.348 2.103,-0.763 3.171,-1.237c0.098,-0.012 0.196,-0.028 0.293,-0.047c0.407,-0.08 1.363,-0.318 2.143,-1.124c10.046,-5.196 20.549,-14.992 27.059,-23.13c19.775,-24.719 25.663,-57.749 19.486,-88.635c-0.761,-3.8 -0.658,-11.266 -1.955,-17.382c-1.152,-5.43 -3.541,-9.819 -7.249,-11.673c-7.417,-3.708 -17.904,-5.837 -26.071,-7.878c-7.873,-1.969 -20.903,0.985 -26.525,6.607c-1.431,1.43 -1.439,2.886 -1.128,4.066c0.235,0.889 0.795,1.923 2.084,2.646c0.479,0.269 1.304,0.567 2.303,0.732c0.745,0.122 1.94,0.233 2.507,0.281Zm16.989,-6.897c0.868,0.739 1.561,1.797 2.049,3.261c0.872,2.616 1.095,10.285 0.705,20.063c-0.85,21.332 -3.988,53.377 -5.085,61.059c-1.635,11.446 -2.99,24.269 -2.99,35.797c-0,3.719 -0.626,7.373 -0.891,11.099c7.446,-4.922 14.685,-12.095 19.524,-18.144c18.303,-22.878 23.605,-53.481 17.888,-82.068c-0.756,-3.78 -0.646,-11.207 -1.936,-17.292c-0.348,-1.638 -0.795,-3.165 -1.461,-4.414c-0.406,-0.761 -0.858,-1.422 -1.54,-1.763c-6.942,-3.47 -16.788,-5.361 -24.433,-7.272c-0.574,-0.144 -1.187,-0.253 -1.83,-0.326Z" style="fill:#fff;"/><path d="M736.634,522.22c-0.61,-0.079 -1.249,-0.179 -1.903,-0.278c-5.218,-0.783 -11.106,-2.373 -14.532,-2.373c-3.297,0 -4.55,1.523 -4.911,2.076c-0.611,0.934 -0.804,1.941 -0.609,3.013c0.138,0.755 0.556,1.886 1.85,2.821c0.7,0.506 2.298,1.231 4.149,1.81c2.489,0.778 5.435,1.337 6.628,1.293c1.132,-0.041 2.138,-0.551 2.837,-1.336c1.142,0.228 2.287,0.441 3.4,0.608c4.305,0.646 8.231,0.531 10.666,-0.687c4.38,-2.19 3.678,-5.338 2.994,-6.679c-0.339,-0.664 -0.894,-1.348 -1.791,-1.882c-0.897,-0.534 -2.778,-1.037 -5.012,-1.037c-1.734,0 -3.212,1.106 -3.766,2.651Z" style="fill:#fff;"/><path d="M732.806,524.672c1.32,-3.28 12.992,-32.388 14.065,-38.828c4.627,-27.765 18.936,-54.819 26.667,-81.88c3.425,-11.984 7.99,-26.724 9.881,-40.199c2.474,6.825 5.09,13.581 7.811,20.384c1.006,2.514 2.654,4.777 4.234,7.1c1.116,1.643 2.225,3.313 2.629,5.33c4.1,20.503 7.673,41.004 11.087,61.488c1.314,7.885 5.092,15.268 9.089,22.586c3.612,6.613 7.412,13.168 9.158,20.15c1.087,4.348 3.306,10.19 6.101,14.614c-1.737,0.066 -3.44,0.112 -4.746,0.112c-0.464,0 -2.469,0.271 -3.918,0.775c-1.151,0.4 -2.036,1.006 -2.512,1.506c-0.862,0.903 -1.189,1.913 -1.219,2.868c-0.032,1.014 0.23,2.14 1.285,3.195c0.76,0.76 2.035,1.475 3.877,1.661c1.891,0.192 4.906,-0.173 8.174,-1.019c1.403,-0.364 2.857,-0.811 4.284,-1.319c1.979,-0.098 3.39,-0.179 3.39,-0.179c1.574,-0.09 2.947,-1.097 3.508,-2.569c0.058,-0.151 0.105,-0.305 0.141,-0.459c0.459,-0.273 0.886,-0.55 1.278,-0.827c2.009,-1.424 3.224,-3.038 3.688,-4.428c0.698,-2.095 -0.435,-4.362 -2.53,-5.06c-2,-0.667 -4.157,0.337 -4.954,2.253c-0.167,0.142 -0.905,0.76 -1.576,1.188c-3.068,-3.484 -5.415,-9.872 -6.51,-14.253c-1.906,-7.622 -5.954,-14.824 -9.899,-22.045c-3.559,-6.517 -7.047,-13.043 -8.218,-20.065c-3.428,-20.569 -7.016,-41.155 -11.134,-61.742c-0.619,-3.094 -2.145,-5.739 -3.857,-8.258c-1.25,-1.839 -2.626,-3.585 -3.422,-5.574c-4.134,-10.336 -8.025,-20.561 -11.535,-31.092c-1.104,-3.312 -0.752,-17.212 -1,-23.011c-0.071,-1.657 -0.225,-2.846 -0.368,-3.364c-0.284,-1.028 -0.782,-1.624 -1.113,-1.955c-1.551,-1.551 -2.989,-1.435 -3.847,-1.283c-1.357,0.241 -2.726,1.106 -3.29,2.982c-0.214,0.714 -0.19,2.369 -0.19,2.369c0,-0 -0.007,-0.185 -0.007,-0.23c0,8.556 -1.01,17.891 -1.01,26.767c0,15.344 -6.211,34.564 -10.452,49.405c-7.812,27.345 -22.19,54.708 -26.866,82.763c-1.131,6.783 -13.05,33.477 -14.137,38.86c-0.863,4.271 2.389,5.62 3.643,5.728c2.2,0.191 4.14,-1.44 4.331,-3.639c0.023,-0.274 0.019,-0.543 -0.011,-0.806Zm-1.921,-2.973c-0.503,-0.314 -1.073,-0.497 -1.708,-0.552c0.625,0.054 1.203,0.25 1.708,0.552Z" style="fill:#fff;"/><path d="M759.192,444.41c0.684,-0.083 1.485,-0.194 1.875,-0.291c2.545,-0.637 4.994,-1.88 7.488,-3.141c1.902,-0.962 3.835,-1.948 5.962,-2.373c12.201,-2.44 21.378,-8.511 31.307,-13.476c1.974,-0.987 2.776,-3.392 1.789,-5.366c-0.988,-1.975 -3.392,-2.776 -5.367,-1.789c-9.312,4.656 -17.855,10.498 -29.298,12.786c-2.842,0.569 -5.461,1.794 -8.002,3.078c-1.948,0.985 -3.832,2.023 -5.819,2.519c-0.819,0.205 -2.448,0.25 -3.266,0.485c-1.157,0.331 -1.912,0.939 -2.35,1.449c-0.751,0.874 -1.065,1.864 -1.016,2.934c0.037,0.813 0.269,1.903 1.392,2.98c1.478,1.417 3.763,1.474 5.305,0.205Zm1.304,-4.209c-0.128,-0.568 -0.444,-1.168 -1.071,-1.77c0.525,0.504 0.883,1.117 1.071,1.77Z" style="fill:#fff;"/><path d="M825.743,302.669c2.021,-0.268 3.545,-2.04 3.464,-4.118c-0.003,-0.083 -0.008,-0.166 -0.017,-0.247c8.784,-6.639 18.789,-11.206 26.511,-18.927c1.561,-1.561 1.561,-4.096 -0,-5.657c-1.561,-1.561 -4.096,-1.561 -5.657,-0c-9.622,9.622 -22.79,14.345 -32.726,24.28c-2.107,2.108 -3.045,3.075 -3.232,3.307c-0.568,0.708 -0.709,1.271 -0.773,1.508c-0.549,2.036 0.354,3.272 1.19,4.023c0.513,0.461 2.157,1.844 4.584,0.543c0.181,-0.097 1.239,-0.909 2.596,-1.979c1.172,-0.925 3.711,-2.515 4.06,-2.733Z" style="fill:#fff;"/><path d="M933.011,231.797c-2.507,9.66 -6.93,21.463 -7.524,24.437c-2.955,14.77 -9.227,28.26 -15.359,41.859c-6.396,14.187 -12.643,28.489 -15.279,44.305c-1.119,6.711 -4.32,21.322 -8.182,31.521c-0.932,2.46 -1.857,4.653 -2.815,6.316c-0.323,-0.378 -0.649,-0.783 -0.921,-1.166c-3.215,-4.518 -6.733,-11.421 -8.154,-13.791c-6.753,-11.254 -27.212,-50.875 -33.169,-66.708c-0.58,-1.543 -1.049,-3.189 -1.269,-3.999c0.221,-0.664 0.271,-1.393 0.108,-2.125c-0.479,-2.155 -2.618,-3.515 -4.773,-3.036c-1.489,0.331 -4.162,2.195 -3.239,6.619c2.186,10.475 27.684,60.369 35.482,73.365c1.751,2.92 6.575,12.319 10.325,16.673c1.535,1.782 3.092,2.866 4.299,3.267c2.074,0.689 3.868,0.267 5.358,-1.223c2.096,-2.095 4.303,-6.219 6.25,-11.36c4.048,-10.691 7.418,-26.003 8.591,-33.038c2.52,-15.12 8.566,-28.768 14.681,-42.331c6.38,-14.151 12.837,-28.211 15.91,-43.579c0.791,-3.953 8.231,-23.357 9.198,-32.951c0.223,-2.206 0.032,-4.062 -0.403,-5.5c1.034,-1.179 2.371,-2.413 2.715,-2.726c1.897,-0.311 3.347,-1.96 3.347,-3.946c0,-2.208 -1.792,-4 -4,-4c-1.766,0 -4.399,1.329 -6.909,4.054c-3.405,3.696 -7.424,10.196 -9.841,12.13c-0.591,0.473 -5.462,4.735 -8.715,8.094c-1.757,1.815 -3.047,3.494 -3.472,4.423c-1.097,2.4 -0.169,4.105 0.773,5.047c0.475,0.475 1.951,1.771 4.32,0.914c0.823,-0.298 4.304,-2.43 4.603,-2.654c3.266,-2.449 5.629,-5.734 8.064,-8.891Zm-95.296,65.341l-0.049,0.014l0.024,-0.006l0.025,-0.008Z" style="fill:#fff;"/><path d="M869.382,520.307c-1.175,1.483 -2.119,2.687 -2.359,3.031c-0.903,1.294 -0.782,2.328 -0.776,2.511c0.061,1.939 1.114,2.943 2.306,3.5c0.28,0.131 2.439,1.295 4.567,-0.833c0.915,-0.916 1.658,-1.887 2.318,-2.938c1.962,-2.475 4.909,-6.189 5.894,-7.421c2.17,-2.712 7.312,-8.77 12.242,-13.18c1.514,-1.355 3,-2.551 4.362,-3.399c0.755,-0.47 1.365,-0.921 1.914,-0.921c2.208,-0 4,-1.793 4,-4c-0,-2.208 -1.792,-4 -4,-4c-2.272,-0 -5.52,1.44 -8.883,4.065c-3.229,2.521 -6.78,6.087 -9.798,9.38c-0.209,-2.627 -0.544,-5.199 -0.544,-6.806c0,-26.954 3.555,-53.634 7.35,-80.194c0.67,-4.689 2.369,-31.287 2.548,-34.114c0.708,-0.888 1.035,-2.07 0.797,-3.27c-0.43,-2.165 -2.536,-3.575 -4.702,-3.145c-0.867,0.172 -1.811,0.611 -2.616,1.616c-0.567,0.707 -1.322,2.457 -1.739,5.066c-1.294,8.103 -1.564,28.211 -2.208,32.716c-3.848,26.934 -7.43,53.992 -7.43,81.325c0,2.126 0.578,5.929 0.695,9.334c0.051,1.458 0.146,2.82 -0.273,3.656c-1.617,3.236 -2.417,5.842 -3.665,8.021Zm18.977,-133.928l-0.185,0.041c0.062,-0.012 0.123,-0.026 0.185,-0.041Z" style="fill:#fff;"/></g></svg>