<?xml version="1.0" encoding="UTF-8" standalone="no"?><!DOCTYPE svg PUBLIC "-//W3C//DTD SVG 1.1//EN" "http://www.w3.org/Graphics/SVG/1.1/DTD/svg11.dtd"><svg width="100%" height="100%" viewBox="0 0 936 477" version="1.1" xmlns="http://www.w3.org/2000/svg" xmlns:xlink="http://www.w3.org/1999/xlink" xml:space="preserve" xmlns:serif="http://www.serif.com/" style="fill-rule:evenodd;clip-rule:evenodd;stroke-linejoin:round;stroke-miterlimit:2;"><g><path d="M144.794,172.337c-10.354,1.998 -19.268,8.494 -26.661,18.325c-10.341,13.749 -17.663,34.261 -21.687,57.595c-6.679,38.726 -4.347,85.245 7.421,120.735c0.881,5.184 1.966,10.161 3.277,14.838c5.783,20.633 16.144,35.442 32.062,38.626c2.28,0.456 4.539,0.646 6.762,0.597c1.687,0.648 3.413,1.194 5.177,1.635c17.669,4.417 31.448,-5.04 41.675,-21.995c21.872,-36.262 27.275,-107.736 25.421,-129.99c-2.048,-24.577 -9.256,-47.247 -20.95,-68.297c-4.795,-8.629 -8.882,-17.207 -15.99,-22.783c-2.145,-3.57 -4.32,-6.625 -6.486,-9.025c-3.185,-3.527 -6.465,-5.719 -9.605,-6.504c-7.863,-1.966 -14.675,0.769 -20.416,6.243Zm48.788,210.518c-4.133,5.54 -8.425,11.123 -12.31,17.338c-4.086,6.537 -9.876,12.684 -16.7,16.955c4.365,-1.015 8.321,-3.308 11.904,-6.581c6.963,-6.36 12.554,-16.197 17.106,-27.712Zm-22.625,-197.942c-1.328,-0.494 -2.77,-0.879 -4.344,-1.142c-2.152,-0.359 -4.441,0.335 -6.837,1.596c-2.965,1.561 -6.01,4.004 -9.064,6.998c-7.935,7.782 -15.817,19.19 -21.993,29.833c-9.921,25.287 -16.857,55.443 -19.638,82.981c-0.375,7.108 -0.573,14.43 -0.533,21.763c1.197,17.308 5.689,42.717 14.536,61.692c7.066,15.154 16.682,26.472 30.52,23.704c3.437,-0.687 5.953,-2.533 8.205,-4.708c2.772,-2.676 5.175,-5.833 7.938,-8.596c20.172,-20.172 32.856,-51.589 37.431,-84.312c0.253,-9.238 -0.044,-18.45 -0.7,-26.982c-1.147,-14.899 -12.934,-63.098 -26.952,-92.448l-0.442,-0.916c-2.294,-3.068 -4.702,-5.973 -7.165,-8.499c-0.32,-0.328 -0.641,-0.65 -0.962,-0.964Zm-35.363,-0.176c-4.05,2.663 -7.738,6.306 -11.068,10.733c-9.71,12.912 -16.417,32.235 -20.196,54.147c-3.036,17.603 -4.164,36.873 -3.324,55.921l0.144,-1.44l0.118,-1.134c1.453,-25.552 5.09,-48.193 8.368,-59.117c1.582,-5.275 5.905,-14.655 11.713,-24.767l0.529,-1.334c2.871,-7.179 7.224,-21.414 13.716,-33.009Zm12.402,-4.149c-0.701,0.841 -1.38,1.734 -2.04,2.662c-1.532,2.155 -2.956,4.515 -4.278,6.982c1.141,-1.259 2.286,-2.454 3.433,-3.579c1.98,-1.942 3.98,-3.663 5.974,-5.132c-1.084,0.133 -2.212,-0.178 -3.089,-0.933Z" style="fill:#ffd700;"/><path d="M253.996,193.139c-3.47,9.998 -4.162,20.164 1.539,29.666c0.8,1.333 1.692,2.612 2.667,3.837c1.434,4.068 3.728,8.843 6.656,12.772c2.648,3.552 5.835,6.398 9.293,7.781c25.547,10.219 46.292,4.878 64.938,-13.768c0.895,-0.894 6.938,-7.523 8.696,-10.766c1.62,-2.99 0.561,-5.337 -0.36,-6.258c-1.216,-1.216 -3.575,-2.141 -6.3,-0.082c-0.276,0.208 -0.582,0.477 -0.909,0.792c-0.291,-1.922 -1.952,-3.397 -3.955,-3.397c-2.208,-0 -4,1.792 -4,4c0,3.494 -0.828,6.495 -2.295,9.036c-15.06,9.116 -32.657,10.001 -45.852,2.246c-9.642,-5.667 -16.797,-15.961 -18.916,-30.793c-0.462,-3.233 -0.585,-6.675 -0.388,-10.211c4.258,-8.885 9.825,-17.399 12.988,-24.78c2.275,-5.308 6.195,-13.999 11.333,-20.508c5.717,-3.122 12.357,-4.404 19.822,-2.911c0.939,0.188 1.844,0.836 2.794,1.532c1.44,1.053 2.878,2.31 4.302,3.401c2.717,2.081 5.511,3.481 8.087,3.481c1.873,-0 2.809,-0.891 3.331,-1.526c0.778,-0.945 1.17,-2.128 0.819,-3.588c-0.128,-0.534 -0.456,-1.354 -1.224,-2.163c-0.676,-0.713 -2.233,-1.827 -2.98,-2.325c-2.556,-1.703 -4.918,-4.074 -7.397,-5.934c-0.507,-0.38 -1.032,-0.747 -1.574,-1.097c0.925,-1.001 1.316,-2.449 0.903,-3.849c-1.384,-4.695 -4.853,-7.052 -9.797,-7.089c-3.544,-0.027 -8.126,1.387 -13.092,4.317c-15.918,9.391 -36.903,34.77 -39.129,68.184Zm10.808,27.777l0.281,1.006c0.077,0.271 0.161,0.55 0.251,0.834c0.898,1.048 1.869,2.045 2.908,2.99c-1.228,-1.506 -2.378,-3.116 -3.44,-4.83Z" style="fill:#ffd700;"/><path d="M451.186,96.017c-11.163,0.745 -26.769,2.261 -38.098,4.311c-5.22,0.944 -9.574,2.026 -12.312,3.164c-1.708,0.709 -2.935,1.519 -3.688,2.272c-1.476,1.476 -2.726,3.75 -3.593,6.731c-1.036,3.565 -1.605,8.297 -1.79,13.67c-0.182,5.304 -0,11.268 0.392,17.31c-1.569,9.755 -3.117,18.797 -3.141,26.583c-0.029,9.132 2.018,16.676 7.571,22.116c1.667,1.633 3.678,3.089 6.094,4.332c0.6,0.674 1.169,1.096 1.569,1.296c0.286,0.143 0.832,0.4 1.702,0.424c0.084,0.002 0.291,-0.007 0.609,-0.039c5.416,1.959 12.426,3.068 21.454,3.068c6.929,0 21.327,-2.388 31.726,-6.223c4.914,-1.812 8.964,-4.013 11.266,-6.316c1.527,-1.526 1.488,-3.114 0.823,-4.56c-0.254,-0.553 -0.977,-1.873 -3.008,-2.352c-2.413,-0.57 -17.44,-0.576 -20.558,0.203c-1.749,0.438 -31.073,6.217 -40.196,7.848c-1.096,-2.482 -3.213,-7.365 -3.388,-8.414c-0.959,-5.752 -3.443,-21.921 -4.499,-37.658c0.827,-5.099 1.654,-10.393 2.255,-15.804c0.22,-1.973 0.277,-4.026 0.253,-5.982c0.549,0.286 1.173,0.447 1.834,0.447c6.76,-0 14.785,-3.374 23.405,-7.613c7.74,-3.807 16.041,-8.339 24.421,-10.876c4.566,-0.299 8.297,-0.457 10.525,-0.457l12.125,0c2.045,0 3.761,-1.542 3.978,-3.576c0.216,-2.034 -1.136,-3.903 -3.136,-4.334c0,0 -7.597,-1.605 -11.451,-1.605c-4.352,-0 -8.755,0.774 -13.144,2.034Zm-3.297,94.23c-2.361,0.484 -6.301,1.271 -10.831,2.166c3.397,-0.514 7.147,-1.249 10.831,-2.166Zm-20.877,-83.91c-4.43,0.553 -8.711,1.177 -12.5,1.863c-3.926,0.71 -7.302,1.476 -9.698,2.313c-0.887,0.309 -1.604,0.517 -1.989,0.836c0.305,0.641 0.66,1.457 1.065,2.469c0.085,0.212 0.151,0.428 0.197,0.644c0.123,-0.012 0.249,-0.018 0.376,-0.018c6.48,-0 14.179,-3.895 22.549,-8.107Z" style="fill:#ffd700;"/><path d="M404.381,142.484c-3.626,1.237 -6.703,2.853 -8.809,4.959c-0.409,0.41 -0.712,0.887 -0.905,1.396l-2.668,1.852c-0.362,0.137 -0.673,0.248 -0.925,0.332c-0.59,0.197 -1.125,0.528 -1.564,0.967l-1.516,1.515c-0.75,0.75 -1.171,1.768 -1.171,2.829c-0,1.055 0.367,1.881 0.911,2.542c0.573,0.697 1.445,1.375 2.871,1.454c0.156,0.009 1.267,0.107 2.695,-0.807c0.472,-0.302 1.432,-0.961 2.609,-1.777c1.518,-0.601 3.52,-1.426 5.832,-2.384c0.118,0.031 0.241,0.059 0.37,0.083c0.832,0.16 2.537,0.182 4.291,0.457c2.181,0.342 4.229,-1.152 4.571,-3.333c0.054,-0.348 0.062,-0.693 0.027,-1.028c3.877,-1.585 7.949,-3.215 11.757,-4.653c5.307,-0.763 10.344,-1.463 13.922,-2.635c0.535,-0.143 2.186,-0.607 2.984,-1.093c0.834,-0.508 1.402,-1.155 1.75,-1.775c0.294,-0.129 0.558,-0.268 0.783,-0.418c1.473,-0.977 2.171,-2.29 2.334,-3.602c0.15,-1.215 -0.056,-2.755 -1.621,-4.32c-3.066,-3.065 -8.069,-3.779 -13.915,-2.357c-8.29,2.016 -18.637,8.183 -24.613,11.796Z" style="fill:#fff;"/><path d="M554.034,101.424c-1.681,1.569 -3.252,3.329 -4.018,3.84c-4.417,2.945 -10.054,11.127 -15.623,21.73c-12.187,23.203 -24.988,58.074 -27.619,67.798c-0.679,2.509 -0.587,4.148 -0.459,4.609c0.253,0.905 0.716,1.501 1.158,1.913c1.614,1.505 4.148,1.417 5.653,-0.198c0.767,-0.822 1.12,-1.883 1.068,-2.925c0.214,-0.816 1.085,-4.077 2.192,-7.397c4.858,-14.583 16.25,-44.078 26.768,-63.205c4.15,-7.546 7.986,-13.459 11.3,-15.669c0.763,-0.509 2.267,-2.074 3.898,-3.672c0.44,-0.431 1.063,-0.954 1.589,-1.378c6.64,7.277 11.695,17.373 15.986,28.372c7.213,18.494 12.198,39.526 18.031,55.082c1.452,3.871 3.78,7.314 6.142,10.732c1.987,2.876 4.009,5.728 5.225,8.971c5.895,15.719 13.595,30.184 18.896,46.086c1.031,3.094 4.033,8.914 4.033,8.914c1.001,1.928 3.357,2.705 5.308,1.75c1.951,-0.955 2.784,-3.292 1.876,-5.265c0,0 -2.636,-5.71 -3.628,-8.687c-4.178,-12.535 -10.83,-24.071 -14.334,-36.919c-3.244,-11.894 -21.557,-65.187 -37.926,-96.092c-5.168,-9.759 -10.243,-17.336 -14.56,-21.041c-2.642,-2.267 -5.213,-3.275 -7.45,-3.275c-2.208,0 -4,1.793 -4,4c-0,0.699 0.179,1.355 0.494,1.926Z" style="fill:#ffd700;"/><path d="M525.971,152.412l-0.003,0.023c-0.114,0.934 0.052,1.906 0.701,2.854c0.373,0.547 1.602,1.671 3.819,2.234c3.338,0.848 10.961,1.7 12.754,1.998c10.645,1.775 22.239,0.984 32.45,4.303c0.672,0.524 6.247,4.827 8.688,5.579c2.403,0.74 4.289,0.107 5.542,-1.147c0.157,-0.157 0.303,-0.321 0.436,-0.494c0.339,0.156 0.676,0.319 1.009,0.485c1.975,0.988 4.38,0.186 5.367,-1.789c0.987,-1.974 0.186,-4.379 -1.789,-5.366c-2.593,-1.297 -5.347,-2.369 -8.222,-3.271c-0.669,-0.652 -1.193,-1.13 -1.347,-1.284c-1.274,-1.274 -4.631,-3.073 -9.33,-4.797c-9.393,-3.446 -24.64,-7.345 -35.781,-8.893c-5.178,-0.72 -9.542,-0.902 -12.234,-0.446c-2.089,0.353 -3.532,1.153 -4.39,2.011c-1.439,1.438 -2.254,3.913 0.25,6.453c0.453,0.46 1.206,1 2.08,1.547Z" style="fill:#fff;"/><path d="M665.419,127.344c-0.416,6.509 -0.806,23.218 -0.442,25.766c1.442,10.097 3.204,20.472 4.72,30.859c0.415,28.404 1.302,56.935 1.302,85.277c0,1.875 0.053,3.713 0.152,5.524c-0.252,1.45 -0.525,2.867 -0.821,4.248c-1.229,5.734 -9.312,28.852 -9.31,38.072c0.002,5.178 2.639,7.548 5.475,7.735c2.203,0.145 4.109,-1.526 4.254,-3.728c0.094,-1.422 -0.568,-2.72 -1.643,-3.5c-0.006,-0.886 0.017,-2.532 0.217,-3.882c0.674,-4.543 2.252,-10.507 3.9,-16.186c0.003,7.911 0.049,15.859 0.049,23.879c-0.062,0.258 -0.516,2.148 -0.554,2.916c-0.047,0.977 0.153,1.798 0.45,2.43c0.704,1.495 1.906,2.57 4.104,2.57c0.13,-0 0.26,-0.005 0.393,-0.017c1.929,0.177 3.708,-1.054 4.222,-2.923c0,0 1.024,-3.838 1.461,-7.025c1.284,-5.297 1.574,-11.515 1.52,-17.78c1.253,-8.798 2.472,-17.635 3.928,-26.37c5.218,-31.306 8.522,-63.495 6.236,-95.066c15.949,37.077 31.582,81.981 36.745,100.054c5.524,19.332 9.679,42.382 16.922,61.416c0.221,1.624 0.517,3.23 0.96,4.617c0.734,2.298 1.879,4.117 3.313,5.297l0.216,0.438c0.123,0.434 0.948,3.255 1.648,4.209c0.866,1.179 1.982,1.796 3.152,1.986c0.877,0.142 1.854,0.069 2.916,-0.462c0.703,-0.351 1.432,-0.929 2.069,-1.818c0.216,-0.301 0.431,-0.663 0.64,-1.078c0.487,0.219 0.964,0.31 1.399,0.341c1.099,0.077 2.206,-0.219 3.185,-1.18c0.427,-0.419 1.163,-1.457 1.427,-3.109c0.317,-1.985 0.311,-6.18 0.311,-6.585c0,-4.37 0.353,-8.855 0.941,-13.362c7.194,-19.484 10.592,-38.714 12.175,-58.326c4.335,-25.093 6.146,-50.583 4.304,-76.369c-1.152,-16.126 -0.425,-32.967 -3.076,-48.872c-0.038,-0.227 -0.093,-0.496 -0.159,-0.782c0.786,0.286 1.521,0.54 2.194,0.758c2.605,0.844 4.576,1.104 5.5,0.997c1.301,-0.15 2.155,-0.715 2.715,-1.276c1.35,-1.35 1.778,-2.759 1.779,-4.05c0,-0.511 -0.071,-1.028 -0.226,-1.541c0.526,-0.948 0.659,-2.095 0.143,-3.455c-0.212,-0.559 -0.721,-1.41 -1.626,-2.244c-1.445,-1.329 -4.524,-3.245 -4.703,-3.347c-10.29,-5.88 -19.911,-16.683 -21.648,-18.439c-1.333,-1.347 -2.577,-1.408 -2.772,-1.425c-1.041,-0.093 -1.85,0.199 -2.483,0.596c-0.817,0.513 -1.47,1.273 -1.757,2.423c-0.098,0.394 -0.398,1.45 0.363,2.885c0.146,0.275 1.182,1.707 3.41,4.677c0.583,0.777 1.116,1.633 1.603,2.562c-7.302,-2.747 -13.939,-5.131 -16.689,-5.748c-2.86,-0.641 -4.551,0.536 -5.003,0.989c-1.105,1.105 -1.925,2.848 -0.612,5.126c0.347,0.602 1.352,1.694 2.764,2.766c2.132,1.619 5.293,3.589 5.512,3.714c1.359,0.776 6.043,3.052 11.684,5.635c-0.997,19.397 -1.679,74.505 -2.036,115.76c-1.117,15.261 -1.914,30.584 -3.288,45.768c-4.033,-26.424 -8.968,-55.47 -16.102,-67.36c-8.203,-13.672 -17.5,-27.128 -26.764,-40.643c-0.578,-1.593 -1.134,-3.189 -1.667,-4.789c-6.116,-18.348 -12.321,-41.085 -23.086,-57.416c-0.722,-2.551 -1.666,-5.061 -2.897,-7.522c-0.403,-0.806 -2.893,-4.703 -4.303,-5.79c-2.457,-1.894 -4.617,-1.071 -5.892,0.204c-0.587,0.587 -1.337,1.83 -1.524,3.698c-0.204,2.024 0.127,5.696 0.28,7.732c-1.08,-1.486 -2.126,-2.806 -3.133,-3.943c-0.415,-1.138 -0.765,-2.259 -1.039,-3.355c-0.578,-2.314 -2.494,-6.707 -2.494,-6.707c-0.821,-1.861 -2.908,-2.81 -4.85,-2.205c-1.942,0.606 -3.121,2.572 -2.739,4.57c0,0 0.926,4.815 1.599,7.168c0.38,1.331 0.742,2.669 1.086,4.013Zm88.128,190.115c0.245,4.673 0.759,9.269 1.871,13.715c0.26,1.042 0.414,2.641 0.587,4.453l0.231,-1.447c-0.364,-2.036 -0.729,-4.196 -1.095,-6.46c-0.523,-3.225 -1.053,-6.668 -1.594,-10.261Zm-32.596,-93.829c8.495,22.829 15.398,43.448 18.518,54.369c2.051,7.176 3.897,14.877 5.785,22.692c-0.091,-7.249 -0.416,-14.466 -2.144,-21.381c-4.746,-18.984 -13.651,-37.253 -22.159,-55.68Zm53.949,49.13c-1.601,7.709 -3.308,15.366 -4.951,23.047l-0.003,0.676c1.883,-7.866 3.547,-15.776 4.954,-23.723Zm-3.429,-32.103c-0.339,2.864 -0.611,5.447 -0.79,7.69l-0.217,2.776c0.417,-3.477 0.75,-6.967 1.007,-10.466Zm-84.416,-59.919c-0.645,15.963 -1.676,32.135 -2.51,43.304c-0.062,8.763 -0.118,17.531 -0.159,26.311c2.942,-23.134 4.341,-46.544 2.669,-69.615Zm47.293,53.011c2.236,4.876 4.429,9.755 6.497,14.656c-1.478,-4.892 -3.084,-8.995 -4.863,-11.96c-0.539,-0.899 -1.083,-1.797 -1.634,-2.696Zm-40.737,-81.249c-0.004,0.988 -0.009,1.975 -0.013,2.962l-0.004,2.022l0.141,0.297c1.905,3.116 3.859,6.218 5.85,9.309c-1.821,-5.405 -3.778,-10.82 -5.972,-16.019l-0.002,1.429Zm-16.724,-6.394c0.051,0.51 0.099,1.02 0.143,1.53l0.003,-1.303l-0.146,-0.227Z" style="fill:#ffd700;"/><path d="M661.523,311.677c-0.526,0.702 -0.824,1.455 -0.96,2.117c-0.275,1.329 -0.044,2.765 0.832,4.073c1.068,1.594 3.518,3.323 7.276,3.038c1.82,-0.139 3.263,-1.476 3.614,-3.18c4.632,0.709 10.868,1.886 15.721,1.9c4.299,0.012 7.727,-1.042 9.524,-2.84c2.228,-2.227 2.47,-4.409 1.973,-6.206c-0.421,-1.524 -1.614,-3.134 -3.901,-4.321c-5.133,-2.665 -18.829,-3.873 -30.366,-3.879c-0.172,-0.043 -1.873,-0.462 -2.661,-0.582c-1.381,-0.21 -2.553,0.006 -3.35,0.38c-1.529,0.72 -2.624,1.953 -2.624,4.202c-0,0.892 0.26,2.128 1.476,3.28c0.543,0.515 1.759,1.251 3.446,2.018Z" style="fill:#fff;"/><path d="M822.303,166.067c-2.757,2.016 -5.242,4.36 -7.02,6.919c-2.085,3.001 -3.242,6.304 -3.091,9.764c0.157,3.604 1.716,7.485 5.613,11.381c3.924,3.925 9.521,3.973 14.869,1.166c0.275,2.824 0.555,5.722 0.761,8.477c0.339,4.553 0.531,8.664 -0.073,11.078c-0.179,0.717 -1.153,2.472 -2.363,4.715c-3.436,6.368 -8.884,15.751 -9.976,18.541c-1.095,2.798 0.275,4.6 0.737,5.062c1.466,1.466 3.513,1.996 5.928,0.602c0.826,-0.477 1.84,-1.369 2.816,-2.494c1.545,-1.783 3.133,-4.227 3.612,-4.864c2.114,-2.819 4.403,-6.225 6.646,-10.021c0.592,0.348 1.282,0.548 2.018,0.548c2.207,-0 4,-1.793 4,-4c-0,-1.93 0.554,-5.934 1.183,-10.791c2.416,-5.751 4.338,-11.781 5.287,-17.66c1.494,-9.253 0.593,-18.126 -4.028,-25.277c0.01,-1.429 -0.136,-2.798 -0.451,-4.056c-0.828,-3.309 -2.727,-5.959 -5.784,-7.487c-4.54,-2.27 -8.31,-2.4 -11.374,-1.421c-3.147,1.005 -5.671,3.253 -7.535,6.257c-0.681,1.096 -1.27,2.299 -1.775,3.561Zm19.266,21.424c-0.464,0.61 -0.948,1.203 -1.45,1.773c0.331,3.915 0.783,8.332 1.109,12.553c0.492,-5.118 0.748,-10.246 0.341,-14.326Zm-21.389,-5.418c-0.002,0.109 -0,0.218 0.005,0.328c0.085,1.96 1.158,3.955 3.277,6.074c0.775,0.775 1.761,0.934 2.79,0.765c-3.235,-1.724 -5.171,-4.27 -6.072,-7.167Zm13.949,-13.584c-1.071,0.417 -2.266,1.005 -3.602,1.768l-0.108,0.063c-0.488,0.613 -0.942,1.284 -1.34,1.99c0.27,0.134 0.528,0.302 0.769,0.504c0.462,0.387 0.798,0.775 1.041,1.148c1.012,-1.842 2.193,-3.652 3.388,-5.199c-0.042,-0.109 -0.087,-0.203 -0.148,-0.274Z" style="fill:#ffd700;"/><path d="M807.243,396.178c0.136,-0.107 0.269,-0.227 0.4,-0.358c0.571,-0.57 1.285,-1.724 1.468,-3.45c0.13,-1.231 0.011,-3.182 -0.114,-4.778c0.336,-0.079 0.681,-0.178 1.037,-0.297c1.352,-0.45 2.904,-1.756 3.866,-4.077c1.114,-2.69 1.71,-7.227 1.503,-10.48c-0.019,-0.299 -0.047,-0.589 -0.084,-0.87c0.565,-0.172 1.094,-0.372 1.567,-0.608c0.25,-0.125 0.726,-0.381 1.234,-0.95c0.295,-0.33 1.261,-1.729 1.705,-3.163c0.663,-2.146 0.146,-4.202 -1.109,-5.457c-1.745,-1.745 -3.647,-2.281 -5.548,-2.09c-2.013,0.203 -4.292,1.488 -6.334,3.914c-0.445,0.53 -0.888,1.121 -1.324,1.761c-1.257,-0.038 -3.003,-0.107 -4.699,-0.229l-0.065,-0.09c-2.571,-3.47 -5.717,-5.49 -8.824,-5.639c-2.346,-0.112 -4.867,0.695 -7.336,3.164c-1.505,1.505 -1.659,3.071 -1.326,4.449c0.273,1.133 1.167,2.626 3.27,3.599c1.872,0.867 5.652,1.608 9.589,2.092c1.17,2.214 2.138,4.736 2.846,7.13c-0.256,0.854 -0.479,1.678 -0.666,2.457c-0.756,3.148 -0.851,5.719 -0.529,7.009c0.072,0.286 0.762,2.247 1.621,3.901c-0.098,1.406 -0.158,2.722 -0.158,3.829c-0,20.451 6.903,42.632 19.32,58.325c12.848,16.237 31.478,25.649 54.461,19.903c6.789,-1.697 14.613,-6.478 21.113,-12.572c6.576,-6.165 11.751,-13.656 13.435,-20.394c12.315,-49.26 -10.835,-72.277 -34.155,-92.196c-21.061,-17.99 -42.761,-32.938 -31.578,-66.487c8.93,-26.791 39.606,-27.295 60.855,-16.67c9.001,4.501 13.383,9.484 15.104,14.252c2.417,6.694 -0.539,12.577 -1.491,14.42c-0.721,1.397 -0.797,2.376 -0.797,2.552c0,3.593 2.545,4.306 3.304,4.464c1.002,0.209 2.46,0.206 3.816,-1.204c0.293,-0.305 0.793,-0.985 1.243,-2.018c0.065,-0.15 0.134,-0.315 0.204,-0.493c0.253,-0.133 0.512,-0.304 0.775,-0.522c0.416,-0.346 1.234,-1.271 2.191,-3.184c0.883,-1.766 2.452,-6.62 4.044,-10.7c0.38,-0.972 0.881,-2.06 1.287,-2.905c0.331,-0.052 0.66,-0.148 0.981,-0.289c2.021,-0.888 2.941,-3.25 2.052,-5.271c-0.913,-2.076 -2.33,-2.77 -3.47,-3.016c-0.761,-0.163 -1.621,-0.162 -2.504,0.159c-1.011,-2.217 -3.595,-2.337 -3.758,-2.331c-0.348,0.012 -2.294,0.13 -3.304,1.908c-3.041,-4.438 -8.043,-8.949 -16.099,-12.977c-25.294,-12.647 -61.393,-10.594 -72.023,21.295c-12.523,37.57 10.387,54.954 33.973,75.1c21.324,18.214 42.85,39.128 31.589,84.173c-1.373,5.493 -5.784,11.471 -11.145,16.497c-5.438,5.098 -11.904,9.229 -17.582,10.648c-19.545,4.887 -35.321,-3.299 -46.247,-17.106c-11.356,-14.351 -17.594,-34.66 -17.594,-53.361c-0,-0.246 0.003,-0.502 0.01,-0.769Z" style="fill:#ffd700;"/><path d="M509.496,188.531c-0.645,1.697 -1.612,3.21 -2.65,4.768c-0.214,0.321 -0.406,0.632 -0.578,0.934c-1.782,-0.435 -3.583,-0.819 -4.944,-0.978c-1.866,-0.217 -3.302,0.046 -4.041,0.377c-1.429,0.641 -2.156,1.694 -2.47,2.847c-0.265,0.973 -0.461,3.053 2.001,5.241c1.539,1.367 3.843,1.33 5.336,-0.02l2.982,0.703l2.721,0.643c0.364,0.189 0.769,0.352 1.216,0.489c1.584,0.484 4.37,0.514 7.615,1.04c0.499,0.188 4.048,1.51 5.477,1.664c1.95,0.209 3.307,-0.536 4.057,-1.285c0.522,-0.523 1.125,-1.363 1.18,-2.705c0.01,-0.259 -0.277,-1.545 -0.402,-2.087c-0.174,-1.663 -1.258,-3.488 -4.094,-4.111c-0.882,-0.194 -2.542,-0.249 -4.266,-0.241c0.136,-0.162 0.264,-0.34 0.384,-0.533c0.448,-0.717 0.963,-1.945 0.582,-3.847c-0.059,-0.297 -0.021,-0.945 -0.003,-1.203c1.194,-1.566 1.075,-3.816 -0.356,-5.247c-0.375,-0.374 -0.806,-0.659 -1.266,-0.853c-0.101,-0.73 -0.27,-1.224 -0.39,-1.5c-0.953,-2.202 -2.672,-2.489 -3.742,-2.489c-1.363,-0 -2.653,0.533 -3.576,1.991c-0.308,0.486 -0.647,1.285 -0.769,2.344c-0.117,1.01 -0.04,3.216 -0.004,4.058Z" style="fill:#fff;"/><path d="M617.573,262.51c0.583,0.624 1.165,1.203 1.731,1.682c1.508,1.276 3.065,1.918 4.472,2.031c4.91,3.553 10.77,7.474 15.365,9.812l1.067,1.645l0.061,0.118c1.03,1.926 3.413,2.669 5.355,1.671c1.942,-0.998 2.725,-3.369 1.76,-5.327l-0.061,-0.117l0,-0l-0.007,-0.013c-0.192,-0.372 -0.785,-1.473 -1.53,-2.485c-0.45,-0.667 -0.937,-1.321 -1.364,-1.748c-5.546,-5.546 -8.401,-12.439 -13.95,-17.987c-1.561,-1.561 -4.095,-1.561 -5.656,-0c-1.436,1.435 -1.551,3.693 -0.347,5.26c-0.513,-0.254 -1.162,-0.567 -1.881,-0.915c-1.126,-1.277 -2.24,-2.615 -3.225,-3.551c-3.145,-2.987 -6.256,-2.669 -8.13,-0.794c-1.027,1.027 -1.406,2.199 -1.358,3.434c0.038,0.985 0.418,2.203 1.49,3.367c1.009,1.095 3.845,2.694 6.208,3.917Z" style="fill:#fff;"/><path d="M468.708,107.523l0.022,2.462l0,3.304l0.005,0.206l0.016,0.203l0.025,0.2l0.035,0.197l0.045,0.193l0.054,0.19l0.063,0.186l0.071,0.182l0.081,0.177l0.088,0.172l0.096,0.168l0.104,0.162l0.112,0.157l0.119,0.151l0.125,0.145l0.133,0.139l0.139,0.133l0.145,0.125l0.151,0.119l0.157,0.112l0.162,0.104l0.167,0.096l0.173,0.088l0.177,0.08l0.182,0.072l0.186,0.063l0.189,0.054l0.194,0.044l0.197,0.036l0.2,0.025l0.203,0.015l0.206,0.006l0.206,-0.006l0.203,-0.015l0.2,-0.025l0.197,-0.036l0.194,-0.044l0.19,-0.054l0.185,-0.063l0.182,-0.072l0.177,-0.08l0.173,-0.088l0.167,-0.096l0.163,-0.104l0.156,-0.112l0.151,-0.119l0.146,-0.125l0.139,-0.133l0.132,-0.139l0.126,-0.145l0.118,-0.151l0.112,-0.157l0.104,-0.162l0.096,-0.168l0.089,-0.172l0.08,-0.177l0.071,-0.182l0.063,-0.186l0.054,-0.19l0.045,-0.193l0.035,-0.197l0.025,-0.2l0.016,-0.203l0.005,-0.206l0,-2.203c0,-3.871 1.101,-7.347 1.101,-11.013l0,-2.196c0,-0.054 -0.003,-0.11 -0.01,-0.166c-0.15,-4.061 -2.07,-4.732 -3.99,-4.052c-1.919,-0.679 -3.838,-0.008 -3.989,4.052c-0.007,0.056 -0.011,0.112 -0.011,0.166l0,1.509c-0.818,0.615 -1.746,1.71 -2.433,3.653c-0.587,1.662 -0.008,3.456 1.31,4.484Z" style="fill:#fff;"/><path d="M465.438,182.322c-0.767,2.03 -1.6,3.716 -1.909,4.336c-0.151,0.303 -0.233,0.482 -0.245,0.511c-0.275,0.652 -0.368,1.232 -0.357,1.732c-0.047,0.241 -0.07,0.489 -0.07,0.743c-0,2.208 1.792,4 4,4c2.729,0 4.208,-0.749 5.078,-1.499c1.08,-0.932 1.702,-2.13 1.826,-3.755c0.08,-1.047 -0.306,-2.612 -0.332,-4.748c0.666,-1.961 1.232,-4.084 1.413,-5.999c0.306,-3.227 -0.486,-5.979 -2.22,-7.713c-0.903,-0.903 -1.892,-1.165 -2.793,-1.175c-0.43,-0.004 -3.642,0.256 -4.063,3.733c-0.148,1.224 -0.289,7.165 -0.328,9.834Zm-0.983,3.29c-0.141,0.104 -0.443,0.346 -0.772,0.833c0.221,-0.32 0.482,-0.599 0.772,-0.833Z" style="fill:#fff;"/><path d="M191.17,209.295c-0.014,-4.487 -0.202,-8.974 -1.053,-13.23c-1.102,-5.514 -4.379,-10.571 -8.89,-14.725c-6.386,-5.879 -15.235,-9.931 -23.061,-11.049c-19.789,-2.827 -32.981,6.121 -41.936,20.152c-12.484,19.562 -16.322,49.557 -18.861,68.601c-4.189,31.42 -6.759,63.982 -4.638,95.802c0.838,12.566 5.819,25.137 10.957,36.441c4.357,9.585 7.011,21.181 13.944,29.5c7.794,9.353 14.593,13.707 20.631,14.959c6.135,1.271 11.73,-0.446 17.187,-4.14c6.92,-4.685 13.688,-12.804 21.582,-20.698c6.637,-6.637 11.838,-17.447 15.929,-29.554c5.841,-17.286 9.541,-37.23 12.795,-50.247c1.402,-5.607 -0.325,-27.031 -1.318,-32.99c-1.437,-8.622 -0.546,-17.418 0.291,-26.261c0.903,-9.536 1.753,-19.122 0.17,-28.621c-1.963,-11.78 -6.427,-25.171 -13.729,-33.94Zm-8.018,-3.046c-0.086,-2.929 -0.321,-5.826 -0.879,-8.615c-0.786,-3.928 -3.251,-7.449 -6.465,-10.408c-5.2,-4.789 -12.4,-8.105 -18.773,-9.015c-20.348,-2.907 -31.972,9.715 -39.176,26.278c-7.791,17.913 -10.534,40.421 -12.56,55.613c-4.12,30.898 -6.672,62.92 -4.586,94.212c0.775,11.621 5.507,23.209 10.258,33.662c4.074,8.962 6.325,19.912 12.806,27.689c6.189,7.427 11.314,11.253 16.11,12.247c5.139,1.065 9.57,-1.449 14.124,-5.241c5.518,-4.594 11.046,-11.102 17.364,-17.42c5.919,-5.918 10.359,-15.662 14.007,-26.458c5.769,-17.071 9.4,-36.772 12.613,-49.626c1.264,-5.056 -0.553,-24.362 -1.448,-29.734c-1.551,-9.302 -0.685,-18.791 0.218,-28.331c0.837,-8.847 1.712,-17.739 0.243,-26.552c-1.192,-7.151 -3.322,-15.028 -6.631,-21.755c-1.013,1.055 -2.571,1.513 -4.063,1.053c-1.544,-0.476 -2.519,-1.507 -2.997,-2.981c-0.255,-0.786 -0.2,-2.003 -0.2,-2.802c0,-1.788 0.033,-3.604 0.056,-5.429c-0.563,-0.428 -1.439,-1.199 -1.439,-3.334c-0,-1.224 0.551,-2.32 1.418,-3.053Z" style="fill:#fff;"/><path d="M325.36,135.474c-0.628,-4.504 -2.555,-7.484 -5.172,-9.388c-2.506,-1.823 -5.775,-2.673 -9.567,-2.572c-5.705,0.151 -12.808,2.521 -19.637,5.805c-9.895,4.758 -19.222,11.359 -22.757,14.893c-6.763,6.764 -10.909,16.214 -13.188,26.578c-3.256,14.807 -2.728,31.476 -1.333,44.027c0.837,7.541 1.662,15.553 4.251,22.497c2.858,7.667 7.762,14.102 16.687,17.671c21.358,8.544 37.985,1.878 53.201,-13.338c2.449,-2.449 5.227,-5.447 7.08,-8.652c1.489,-2.575 2.393,-5.297 2.393,-8.012c-0,-2.208 -1.792,-4 -4,-4c-2.208,0 -4,1.792 -4,4c-0,1.795 -0.931,3.529 -2.064,5.187c-1.472,2.151 -3.378,4.132 -5.066,5.821c-12.775,12.775 -26.641,18.739 -44.573,11.567c-6.547,-2.619 -10.065,-7.414 -12.162,-13.039c-2.367,-6.348 -3.03,-13.69 -3.796,-20.585c-1.312,-11.809 -1.868,-27.495 1.195,-41.427c1.935,-8.796 5.291,-16.897 11.032,-22.638c4.533,-4.533 19.741,-14.586 31.78,-17.578c2.479,-0.615 4.802,-0.931 6.822,-0.725c1.4,0.142 2.629,0.519 3.497,1.427c0.788,0.825 1.236,2.024 1.454,3.586c0.305,2.187 2.328,3.714 4.515,3.409c2.186,-0.305 3.714,-2.328 3.408,-4.514Z" style="fill:#fff;"/><path d="M396.584,110.826c-0.433,-0.279 -1.03,-0.656 -1.305,-0.796c-0.779,-0.397 -1.468,-0.513 -1.936,-0.532c-1.36,-0.056 -2.353,0.466 -3.084,1.197c-0.524,0.523 -1.1,1.365 -1.504,2.606c-0.429,1.315 -0.762,3.455 -0.937,6.183c-0.854,13.322 1.418,42.866 2.232,48.565c0.328,2.296 2.104,28.516 2.623,33.901c0.216,2.248 1.191,3.328 1.276,3.413c0.323,0.323 0.846,0.762 1.722,1.023c0.279,0.083 1.336,0.24 3.045,0.16c9.731,-0.458 56.287,-5.221 61.755,-6.588c1.239,-0.309 4.473,-1.387 6.689,-2.399c1.419,-0.648 2.501,-1.373 3.009,-1.881c0.526,-0.526 1.195,-1.609 1.633,-3.107c0.284,-0.971 0.779,-2.84 0.999,-3.683c0.803,-0.732 1.307,-1.786 1.307,-2.957c0,-2.207 -1.792,-4 -4,-4c-1.43,0 -3.123,0.667 -4.235,2.729c-0.571,1.06 -1.373,4.083 -1.706,5.395c-1.353,0.555 -4.692,1.906 -5.637,2.142c-5.01,1.253 -45.44,5.377 -58.13,6.235c-0.697,-8.643 -2.138,-29.469 -2.43,-31.514c-0.691,-4.833 -2.461,-27.357 -2.34,-41.562c0.021,-2.461 0.097,-4.66 0.254,-6.45c1.363,-0.011 4.77,-0.808 9.092,-2.121c8.793,-2.672 22.074,-7.327 27.72,-8.581c3.23,-0.718 18.495,-5.234 28.998,-6.231c1.981,-0.188 3.77,-0.252 5.22,-0.095c0.198,0.021 0.427,0.064 0.644,0.113c-0.089,0.551 -0.218,1.268 -0.358,1.789c-0.479,1.786 -1.034,3.604 -1.212,5.013c-0.143,1.13 -0.079,2.12 0.129,2.911c0.352,1.339 1.086,2.338 2.126,3.034c0.83,0.554 1.936,0.966 3.455,0.887c2.205,-0.114 3.902,-1.996 3.788,-4.201c-0.056,-1.083 -0.538,-2.044 -1.277,-2.727c0.209,-0.862 0.491,-2 0.718,-2.845c0.483,-1.803 0.816,-3.594 0.75,-5.035c-0.084,-1.846 -0.734,-3.335 -1.818,-4.42c-1.044,-1.043 -2.657,-1.891 -4.832,-2.292c-2.101,-0.387 -4.909,-0.398 -8.089,-0.096c-10.854,1.03 -26.639,5.643 -29.977,6.385c-5.765,1.281 -19.333,6.008 -28.311,8.736c-2.647,0.805 -4.807,1.473 -6.066,1.696Z" style="fill:#fff;"/><path d="M427.494,139.041c-10.274,0.069 -19.326,5.969 -27.507,11.813c-2.508,1.791 -9.254,4.256 -10.163,4.701c-2.754,1.348 -2.356,3.938 -2.3,4.293c0.192,1.198 0.819,2.961 3.387,3.331c0.14,0.02 0.93,0.132 2.396,-0.299c0.48,-0.141 0.913,-0.364 1.289,-0.651c2.47,-1.019 7.907,-3.342 10.041,-4.865c6.902,-4.931 14.361,-10.324 23.041,-10.324c0.546,-0 1.534,-0.221 2.346,-0.431c0.542,0.276 1.155,0.431 1.804,0.431c2.208,-0 4,-1.793 4,-4c0,-1.505 -0.538,-2.496 -1.152,-3.199c-0.749,-0.859 -1.761,-1.427 -3.076,-1.556c-0.651,-0.064 -1.476,0.007 -2.369,0.243c-0.507,0.135 -1.519,0.446 -1.737,0.513Z" style="fill:#fff;"/><path d="M498.397,205.567c5.677,0.143 20.431,0.506 23.365,0.506c2.208,0 4,-1.792 4,-4c0,-2.207 -1.792,-4 -4,-4c-3.902,0 -23.263,-1.292 -27.36,-0.365c-3.55,0.803 -3.994,3.496 -3.821,4.856c0.102,0.801 0.608,2.688 3.396,3.877c1.556,0.664 3.301,0.264 4.42,-0.874Z" style="fill:#fff;"/><path d="M512.557,200.257c0.264,-1.055 0.861,-3.288 1.635,-5.277c4.439,-11.402 15.064,-31.065 20.123,-38.653c3.067,-4.6 12.791,-28.762 19.955,-42.856c0.731,-1.439 1.569,-2.896 2.35,-4.184c1.855,6.308 3.516,12.719 7.601,18.166c19.523,26.03 23.259,56.128 33.073,85.571c1.992,5.974 14.087,29.66 21.387,44.37c-1.484,-1.046 -2.958,-1.928 -4.336,-2.388c-0.619,-0.206 -1.673,-0.835 -1.936,-0.995l-0,-0.001l-0,0l-0.061,-0.036c-1.889,-1.117 -4.327,-0.502 -5.46,1.378c-1.134,1.88 -0.541,4.322 1.329,5.473c0,-0 3.082,1.852 4.341,3.111c3.824,3.824 8.213,6.659 12.402,9.254c3.658,2.266 7.153,4.306 9.735,6.888c1.561,1.561 4.096,1.561 5.657,-0c1.561,-1.562 1.561,-4.096 0,-5.657c-2.348,-2.349 -5.315,-4.359 -8.535,-6.384c0.015,-0.153 0.022,-0.311 0.022,-0.473c-0,-0.304 -0.042,-0.913 -0.338,-1.756c-0.317,-0.903 -1.231,-2.922 -2.568,-5.691c-6.151,-12.732 -21.785,-42.829 -24.049,-49.623c-10.087,-30.26 -14.198,-61.088 -34.263,-87.841c-4.465,-5.954 -5.444,-13.293 -7.707,-20.08c-0.132,-0.397 -1.707,-3.29 -2.317,-3.874c-1.073,-1.027 -2.185,-1.167 -2.861,-1.167c-0.992,-0 -2.264,0.324 -3.565,1.425c-1.077,0.911 -2.507,2.767 -4.052,5.386c-7.051,11.952 -19.005,42.363 -22.461,47.547c-6.046,9.069 -19.657,34.651 -22.562,44.962c-0.812,2.882 -0.746,5.048 -0.349,6.166c0.647,1.827 1.907,2.794 3.558,3.114c2.167,0.419 4.268,-1 4.687,-3.167c0.187,-0.963 0.01,-1.913 -0.435,-2.708Zm-2.443,-1.911l0.001,0l-0.001,-0Zm-0.122,-0.032c-0.055,-0.014 -0.111,-0.026 -0.167,-0.037l0.167,0.037Z" style="fill:#fff;"/><path d="M532.56,150.159c-0.355,-0.072 -0.725,-0.095 -1.104,-0.064c-1.687,0.137 -2.431,0.59 -2.519,0.643c-1.415,0.85 -1.763,2.004 -1.89,2.786c-0.209,1.276 -0.039,2.871 1.827,4.038c0.109,0.068 0.945,0.631 2.524,0.622c2.305,-0.013 14.387,-0.537 17.114,-0.537c5.707,0 10.977,1.234 16.232,2.436c5.833,1.335 11.649,2.638 17.897,2.638c2.208,-0 4,-1.793 4,-4c-0,-2.208 -1.792,-4 -4,-4c-5.628,-0 -10.858,-1.234 -16.112,-2.436c-5.831,-1.334 -11.687,-2.638 -18.017,-2.638c-2.409,0 -12.102,0.407 -15.952,0.512Z" style="fill:#fff;"/><path d="M659.867,315.726c0.288,0.12 0.577,0.251 0.86,0.39c0.495,0.245 1.239,0.784 1.447,0.937c0.719,1.924 2.808,3.01 4.823,2.446c0.853,-0.239 1.564,-0.739 2.071,-1.389c2.29,1.018 4.574,2.041 6.932,2.513c6.543,1.308 13.475,1.077 20.271,1.077c2.208,-0 4,-1.793 4,-4c0,-2.208 -1.792,-4 -4,-4c-6.269,-0 -12.666,0.285 -18.702,-0.922c-2.078,-0.416 -4.052,-1.452 -6.071,-2.341c-2.801,-1.232 -5.663,-2.234 -8.703,-2.234c-0.083,0 -0.171,-0.004 -0.262,-0.012c-2.288,-0.907 -4.349,-1.387 -4.349,-1.387c-2.025,-0.46 -4.065,0.706 -4.696,2.684c-0.631,1.978 0.355,4.11 2.272,4.909c0,-0 2.032,0.795 4.107,1.329Z" style="fill:#fff;"/><path d="M669.791,312.522c-0.024,0.75 -0.111,4.214 0.258,5.4c0.768,2.469 2.573,3.278 4.238,3.278c1.348,-0 2.637,-0.523 3.563,-1.979c0.301,-0.474 0.635,-1.251 0.766,-2.284c0.112,-0.893 0.097,-2.849 0.086,-3.641c0.815,-1.727 1.593,-3.671 2.573,-5.423c1.078,-1.927 0.389,-4.366 -1.538,-5.444c-1.092,-0.611 -2.348,-0.654 -3.428,-0.226c-1.674,-10.977 -3.158,-22.926 -0.64,-32.999c7.667,-30.669 1.295,-64.912 7.536,-96.118c1.902,-9.508 0.428,-18.431 -0.774,-27.3c4.745,12.647 9.567,25.354 14.623,37.994c15.036,37.591 25.781,76.943 40.971,114.919c3.528,8.819 12.944,21.058 20.498,31.552c1.855,2.577 3.603,5.026 5.08,7.267c0.051,4.104 0.182,8.046 0.538,10.84c0.406,3.174 1.413,5.308 2.251,6.146c2.474,2.474 4.596,2.517 5.824,2.237c1.741,-0.396 3.432,-1.834 3.927,-4.578c0.505,-2.796 -0.43,-7.996 -0.544,-8.453c-0.555,-2.217 -2.018,-5.129 -4.064,-8.472c-0.07,-6.897 0.029,-13.928 -0.354,-16.605c-5.411,-37.876 1.162,-78.448 6.496,-115.787c1.32,-9.24 2.208,-32.921 0.584,-50.359c-0.575,-6.182 -1.509,-11.613 -2.784,-15.502l4.067,1.165l4.029,1.159c0.732,0.924 1.865,1.518 3.135,1.518c2.207,-0 4,-1.793 4,-4c-0,-0.855 -0.233,-1.825 -0.986,-2.785c-0.57,-0.726 -2.091,-1.85 -4.501,-2.816c-7.507,-3.009 -26.608,-7.42 -30.02,-8.273c-1.161,-0.29 -3.354,-1.278 -3.354,-1.278l-0,0l-0.049,-0.022c-2.023,-0.86 -4.362,0.075 -5.235,2.092c-0.874,2.018 0.045,4.363 2.056,5.25l0.05,0.021l-0.001,-0c0,-0 2.31,0.956 3.344,1.645c3.523,2.349 6.596,2.869 9.372,3.244c1.361,0.185 2.627,0.178 3.754,1.001c0.725,0.529 1.346,1.396 2.003,2.71c1.596,3.192 2.53,8.898 3.155,15.613c1.563,16.789 0.732,39.589 -0.539,48.486c-5.438,38.066 -12.012,79.435 -6.495,118.049c0.12,0.846 0.191,2.132 0.233,3.714c-6.877,-9.444 -14.929,-19.967 -18.042,-27.75c-15.19,-37.976 -25.935,-77.328 -40.971,-114.919c-5.176,-12.94 -10.105,-25.95 -14.958,-38.891c-2.14,-5.707 -5.468,-10.985 -8.162,-16.374c-0.503,-1.005 -1.728,-2.897 -1.728,-2.897c-1.049,-1.605 -3.089,-2.24 -4.864,-1.514c-1.775,0.726 -2.784,2.61 -2.406,4.49c-0,-0 0.921,4.45 0.921,6.707c-0,6.777 1.212,13.431 2.084,20.189c0.796,6.167 1.306,12.43 -0.008,18.998c-6.217,31.085 0.184,65.198 -7.453,95.747c-3.48,13.92 -0.136,31.193 1.883,45.258Zm112.932,-175.353l0.001,0.003l-0.002,-0.017l0.001,0.014Zm-0.011,-0.16l-0.004,-0.182c-0,0.06 0.001,0.121 0.004,0.182Z" style="fill:#fff;"/><path d="M837.718,181.091l2.655,7.965c3.206,9.618 -1.023,24.473 -6.9,32.31c-1.804,2.405 -7.96,12.373 -8.602,14.334c-0.517,1.578 -0.108,2.687 0.124,3.192c0.705,1.541 1.91,2.364 3.683,2.364c1.973,0 3.614,-1.431 3.94,-3.31c0.909,-1.543 5.873,-9.938 7.255,-11.78c7.196,-9.596 12.015,-27.862 8.089,-39.64c-1.046,-3.138 -1.999,-5.998 -2.998,-8.994c-0.452,-1.356 -1.189,-2.606 -2.026,-3.817c-0.713,-1.034 -1.578,-1.999 -1.971,-3.178c-0.309,-0.926 -0.622,-2.593 -0.767,-3.414c-0.031,-0.197 -0.06,-0.358 -0.081,-0.471l-0.002,-0.013l-0,-0l-0.031,-0.165c-0.064,-0.298 -0.159,-0.581 -0.282,-0.846c0.107,-0.231 0.196,-0.451 0.264,-0.657c0.699,-2.116 0.134,-3.791 -1.067,-4.991c-3.547,-3.547 -8.288,-3.245 -12.953,0.388c-5.129,3.995 -10.257,12.476 -11.862,19.188c-0.869,3.638 -0.666,6.85 0.422,9.024c1.376,2.753 5.06,4.674 7.285,5.786c2.495,1.248 4.685,1.334 6.585,0.791c1.838,-0.525 3.479,-1.704 4.842,-3.467c1.98,-2.559 3.394,-6.628 4.398,-10.599Zm-8.815,52.172c1.199,0.066 2.258,0.662 2.946,1.557c-0.67,-0.968 -1.642,-1.505 -2.946,-1.557Zm0.368,-65.031c-0.175,0.181 -0.347,0.369 -0.519,0.562c-2.848,3.196 -5.385,7.748 -6.542,11.708c-0.532,1.823 -0.976,3.442 -0.447,4.501c0.191,0.382 0.644,0.589 1.042,0.834c0.933,0.577 1.94,1.011 2.666,1.374c0.318,0.159 0.565,0.324 0.807,0.254c0.302,-0.086 0.49,-0.379 0.714,-0.669c0.819,-1.058 1.422,-2.533 1.954,-4.117c1.138,-3.386 1.911,-7.207 2.575,-10.041c-1.31,-0.609 -2.243,-1.909 -2.311,-3.45c-0.013,-0.289 0.006,-0.611 0.061,-0.956Z" style="fill:#fff;"/><path d="M810.899,373.15c1.526,-0.36 2.915,-0.826 4.079,-1.408c1.975,-0.988 2.776,-3.392 1.789,-5.367c-0.988,-1.974 -3.392,-2.776 -5.367,-1.789c-0.803,0.402 -1.761,0.701 -2.814,0.923c-0.189,-0.265 -0.378,-0.488 -0.563,-0.673c-0.549,-0.549 -2.14,-1.512 -4.642,-1.247c-2.797,0.296 -8.969,2.074 -10.678,2.074l-1.998,0c-2.118,0 -3.869,1.651 -3.993,3.765c-0.125,2.115 1.421,3.959 3.524,4.207c0,0 6.254,0.735 12.729,0.488c0.346,2.418 0.609,5.464 0.848,8.917c0.77,11.116 1.267,26.269 2.972,38.768c1.23,9.013 3.195,16.706 6.074,21.024c1.361,2.042 3.415,3.545 5.789,4.727c2.43,1.21 5.267,2.015 7.312,3.377c18.201,12.134 37.357,18.55 56.97,8.744c3.577,-1.788 6.258,-4.917 8.258,-8.624c2.509,-4.651 3.925,-10.23 5.24,-14.174c10.307,-30.921 -8.201,-63.792 -27.448,-83.038c-6.267,-6.268 -13.765,-12.653 -17.021,-22.42c-1.589,-4.766 -6.158,-8.981 -9.987,-13.411c-2.538,-2.938 -4.858,-5.975 -3.503,-10.041c1.939,-5.818 2.985,-13.299 5.091,-20.101c1.762,-5.694 4.204,-10.967 9.391,-13.561c10.992,-5.496 24.403,-8.508 36.495,-7.268c11.44,1.173 21.708,6.206 27.09,16.971c1.144,2.288 1.72,6.687 1.955,9.007l-0.214,0.655c-1.155,1.287 -2.144,2.953 -2.507,4.25c-0.504,1.8 -0.101,3.289 0.489,4.214c0.75,1.175 1.927,2.073 3.855,2.073c0.697,-0 2.701,-0.232 3.906,-2.635c0.258,-0.515 0.606,-1.435 1.006,-2.596c0.842,-0.379 1.557,-1.051 1.977,-1.953c0.472,-1.012 0.483,-2.122 0.118,-3.093c1.14,-2.547 3.122,-7.027 4.202,-9.725l0.662,-1.708c0.589,-0.745 1.099,-1.466 1.305,-1.946c0.966,-2.251 0.288,-4.015 -0.854,-5.157c-0.9,-0.9 -1.943,-1.241 -3.07,-1.186c-0.734,0.036 -1.706,0.256 -2.638,1.137c-0.296,0.28 -0.783,0.869 -1.211,1.754c-0.182,0.376 -0.389,0.869 -0.592,1.386l-0.397,0.446c-0.186,0.212 -0.373,0.425 -0.56,0.638l-0.45,0.522c-6.719,-13.129 -19.182,-19.569 -33.256,-21.012c-13.543,-1.389 -28.577,1.915 -40.888,8.071c-5.829,2.914 -9.487,8.012 -11.942,14.066c-3.15,7.77 -4.212,17.198 -6.553,24.221c-2.357,7.073 0.624,12.692 5.04,17.802c3.124,3.614 7.155,6.821 8.451,10.71c3.679,11.037 11.871,18.464 18.953,25.547c17.403,17.403 34.835,46.892 25.516,74.851c-1.013,3.037 -2.053,7.137 -3.718,10.905c-1.332,3.014 -3.005,5.886 -5.769,7.268c-16.893,8.446 -33.278,2.206 -48.955,-8.245c-1.986,-1.324 -4.58,-2.267 -7.035,-3.348c-1.508,-0.664 -3.016,-1.292 -3.847,-2.538c-2.408,-3.612 -3.774,-10.127 -4.803,-17.667c-1.682,-12.329 -2.158,-27.276 -2.918,-38.24c-0.248,-3.578 -0.536,-6.758 -0.895,-9.337Z" style="fill:#fff;"/><path d="M25.959,72.35c-1.728,-3.856 -3.068,-7.885 -5.667,-11.35c-1.812,-2.415 -5.241,-5.009 -8.26,-7.791c-1.171,-1.078 -2.271,-2.186 -3.062,-3.364c-0.233,-0.348 -0.444,-0.696 -0.6,-1.053c0.159,-0.357 0.268,-0.743 0.317,-1.151c0.263,-2.192 -1.303,-4.185 -3.495,-4.448c-1.612,-0.193 -2.444,0.175 -2.899,0.419c-0.792,0.426 -2.198,1.162 -2.198,3.988c-0,3.452 1.865,6.757 4.708,9.728c2.978,3.113 7.129,5.86 9.089,8.472c3.642,4.857 4.695,10.876 8.026,15.874c0.252,0.377 1.728,2.644 2.68,3.737c0.647,0.743 1.287,1.196 1.688,1.405c0.067,0.036 0.134,0.069 0.201,0.101c-1.354,12.824 -1.927,25.758 -1.927,38.665c-0,12.088 -1.676,25.703 0.309,37.61c0.644,3.866 1.859,7.289 3.456,9.477c1.676,2.298 3.814,3.505 6.176,3.622c2.138,0.106 4.772,-0.719 7.59,-3.538c1.562,-1.561 1.562,-4.096 0,-5.657c-1.561,-1.561 -4.095,-1.561 -5.656,0c-0.462,0.461 -1.095,0.879 -1.42,1.08c-0.223,-0.289 -0.637,-0.855 -0.854,-1.321c-0.638,-1.375 -1.089,-3.109 -1.401,-4.978c-1.915,-11.491 -0.2,-24.63 -0.2,-36.295c-0,-25.145 2.209,-50.396 8.29,-74.719c1.552,-6.209 2.769,-12.071 5.381,-17.949c0.225,-0.505 2.573,-5.725 2.821,-6.991c0.417,-2.117 -0.618,-3.351 -1.099,-3.833c-1.162,-1.162 -3.403,-1.484 -4.872,-0.749c-1.349,0.674 -2.869,2.355 -3.986,4.785c-1.618,3.523 -2.809,8.855 -3.22,10.635c-2.789,12.088 -6.655,23.628 -9.9,35.525l-0.016,0.064Z" style="fill:#fff;"/><path d="M56.727,68.939c-3.331,0.881 -5.921,3.359 -7.823,6.949c-4.673,8.818 -4.552,25.597 -3.937,31.743c0.273,2.733 0.824,6.266 2.215,9.021c1.27,2.513 3.185,4.445 5.852,5.334c2.054,0.685 4.374,0.163 6.453,-1.754c2.14,-1.974 4.191,-5.968 5.021,-7.212c6.383,-9.575 7.361,-23.588 4.353,-34.617c-0.533,-1.957 -2.256,-5.089 -4.27,-7.244c-0.52,-1.259 -1.67,-2.22 -3.113,-2.433c-0.253,-0.038 -0.502,-0.068 -0.749,-0.088c-1.362,-0.38 -2.719,-0.275 -4.002,0.301Zm2.732,8.719c-0.792,0.813 -1.902,1.256 -3.041,1.206c-0.719,1.123 -1.28,2.495 -1.75,3.999c-2.497,7.993 -2.199,19.389 -1.741,23.972c0.162,1.619 0.394,3.647 1.05,5.409c0.184,0.494 0.37,0.995 0.645,1.398c0.37,-0.451 0.803,-1.004 1.078,-1.438c0.945,-1.49 1.719,-2.973 2.151,-3.622c5.172,-7.757 5.729,-19.139 3.292,-28.074c-0.18,-0.662 -0.995,-1.891 -1.684,-2.85Z" style="fill:#fff;"/><path d="M84.031,65.85c0.282,1.317 1.181,5.569 1.181,6.215c0,3.544 0.05,15.659 -1.721,23.498c-0.246,1.089 -0.521,2.083 -0.852,2.927c-0.077,-0.117 -0.146,-0.23 -0.202,-0.331c-0.659,-1.194 -1.174,-2.35 -1.517,-2.923c-3.298,-5.495 -3.258,-12.184 -3.777,-18.407c-0.08,-0.965 -0.085,-2.235 -0.054,-3.525c1.467,-1.147 1.976,-3.205 1.113,-4.936c-0.409,-0.818 -1.041,-2.54 -1.041,-2.54c-0.654,-1.758 -2.442,-2.826 -4.3,-2.567c-1.858,0.258 -3.287,1.773 -3.436,3.643c-0,0 -0.547,7.071 -0.254,10.59c0.618,7.418 0.958,15.308 4.889,21.858c0.802,1.337 2.579,5.282 4.792,6.94c2.019,1.513 4.302,1.944 6.798,0.696c1.238,-0.619 2.419,-1.719 3.376,-3.352c0.918,-1.565 1.69,-3.75 2.269,-6.31c1.904,-8.429 1.917,-21.451 1.917,-25.261c0,-1.228 -0.813,-7.904 -2.297,-10.534c-1.207,-2.139 -2.981,-2.896 -4.506,-2.896c-2.208,0 -4,1.793 -4,4c0,1.318 0.638,2.487 1.622,3.215Z" style="fill:#fff;"/><path d="M97.296,50.219c1.065,4.425 1.168,9.483 1.168,12.416c0,2.208 1.793,4 4,4c2.208,0 4,-1.792 4,-4c0,-3.72 -0.215,-10.368 -1.791,-15.809c-1.324,-4.57 -3.707,-8.27 -7.046,-9.94c-2.66,-1.33 -4.762,-1.006 -6.346,-0.171c-1.445,0.763 -2.598,2.134 -3.249,3.937c-0.644,1.784 -0.779,4.049 -0.461,5.933c0.495,2.928 2.276,4.875 3.816,5.45c1.601,0.597 3.764,0.667 5.877,-1.777l0.032,-0.039Z" style="fill:#fff;"/><path d="M117.597,59.672c-0.065,-0.655 -0.183,-1.575 -0.356,-1.939c-0.709,-1.49 -1.888,-2.41 -3.818,-2.41c-1.08,-0 -2.223,0.367 -3.234,1.339c-0.725,0.699 -1.527,2.027 -1.945,3.663c-0.524,2.047 -0.437,4.514 0.243,6.049c0.513,1.159 1.292,2.012 2.265,2.551c0.141,1.967 0.2,3.945 0.2,5.943c-0,4.058 -0.51,8.116 -0.51,12.232c-0,0.705 0.394,5.584 0.517,6.509c0.24,1.794 1.259,2.533 1.378,2.636c0.879,0.758 1.797,0.974 2.621,0.972c0.949,-0.001 1.937,-0.287 2.822,-1.172c0.903,-0.903 1.712,-2.541 2.075,-4.646c0.446,-2.59 0.322,-6.224 0.571,-7.718c0.854,-5.122 1.733,-15.054 5.098,-22.167c1.643,-3.471 3.813,-6.346 7.522,-6.346c2.207,-0 4,-1.793 4,-4c-0,-2.208 -1.793,-4 -4,-4c-6.918,-0 -11.689,4.45 -14.753,10.925c-0.243,0.514 -0.475,1.041 -0.696,1.579Z" style="fill:#fff;"/><path d="M133.735,64.725c-0.134,0.1 -0.258,0.194 -0.372,0.283c-1.219,0.946 -1.805,1.855 -1.944,2.148c-0.763,1.613 -0.351,2.881 0.137,3.736c0.312,0.546 1.166,1.894 2.954,2.054c1.086,4.185 3.238,7.395 6.039,8.862c3.727,1.952 9.521,1.57 16.732,-5.641c2.972,-2.972 3.592,-5.925 5.698,-9.435c1.136,-1.893 0.521,-4.352 -1.372,-5.488c-1.893,-1.136 -4.352,-0.521 -5.488,1.372c-1.735,2.893 -2.046,5.445 -4.495,7.895c-2.132,2.132 -3.948,3.476 -5.555,4.076c-0.718,0.267 -1.316,0.392 -1.808,0.134c-0.644,-0.337 -1.038,-1.051 -1.398,-1.869c-0.512,-1.164 -0.835,-2.559 -1.007,-4.071c1.519,-1.1 3.007,-2.196 3.477,-2.599c3.477,-2.98 9.01,-8.049 11.198,-13.322c1.915,-4.613 1.743,-9.389 -2.563,-13.695c-1.124,-1.124 -2.315,-1.651 -3.471,-1.839c-1.633,-0.266 -3.343,0.15 -4.959,1.335c-1.336,0.98 -2.688,2.638 -3.834,4.437c-1.217,1.911 -2.18,3.978 -2.684,4.65c-3.196,4.262 -5.043,10.818 -5.285,16.977Zm15.584,-18.43c-0.496,0.638 -1.071,1.413 -1.418,2.001c-1.095,1.853 -1.994,3.602 -2.481,4.252c-1.058,1.41 -1.888,3.168 -2.493,5.088c1.885,-1.744 3.901,-3.841 5.3,-6.093c1.057,-1.701 1.792,-3.53 1.092,-5.248Z" style="fill:#fff;"/><path d="M227.254,27.593c-1.015,0.123 -2.996,0.581 -3.867,1.209c-1.375,0.992 -1.839,2.315 -1.839,3.509c0,1.296 0.51,2.306 1.415,3.083c0.544,0.468 1.586,1.157 3.271,0.966c1.628,-0.184 9.829,-4.053 10.126,-4.242c0.389,-0.247 0.791,-0.473 1.185,-0.709c3.25,-1.95 8.163,-5.839 11.573,-10.137c2.69,-3.39 4.386,-7.083 4.386,-10.368c-0,-2.207 -1.793,-4 -4,-4c-2.208,0 -4,1.793 -4,4c-0,1.754 -1.216,3.585 -2.652,5.395c-2.777,3.498 -6.777,6.662 -9.423,8.25c-0.455,0.273 -0.916,0.535 -1.364,0.82c0.014,-0.009 0.122,-0.078 0.122,-0.078c-0,-0 -2.745,1.346 -4.933,2.302Z" style="fill:#fff;"/><path d="M235.488,23.449l-1.26,-2.413c-0.096,0.139 -0.599,0.72 -0.703,1.947c-0.01,0.111 -0.015,0.221 -0.014,0.33l-0.001,0c0,0 -0.001,0.087 -0.001,0.191c-0.01,1.216 -0.066,7.442 -0.226,9.52c-0.541,7.031 -0.012,13.697 -0.012,20.694c0,13.022 2.39,26.823 0.55,39.7c-0.024,0.167 -0.826,13.337 -0.639,16.317c0.119,1.885 0.989,2.86 1.261,3.132c0.628,0.628 1.362,1.027 2.209,1.184c0.729,0.777 1.765,1.262 2.913,1.262c2.207,-0 4,-1.793 4,-4c-0,-2.623 -0.997,-3.79 -1.672,-4.397c-0.172,-0.155 -0.384,-0.282 -0.623,-0.385c0.161,-4.211 0.455,-11.873 0.471,-11.982c1.891,-13.243 -0.47,-27.439 -0.47,-40.831c0,-6.789 -0.536,-13.258 -0.012,-20.081c0.169,-2.198 0.239,-8.782 0.249,-10.068c0.002,-0.142 0.002,-0.225 0.002,-0.24c0.001,-0.719 -0.147,-1.079 -0.151,-1.096l-1.114,1.473c-1.274,-0.037 -3.269,-0.159 -4.757,-0.257Zm2.022,3.874l0.001,-0.001l-0.001,0l0,0.001Z" style="fill:#fff;"/><path d="M246.479,101.831c-0.466,-0.018 -1.902,-0.068 -2.685,-0.031c-1.547,0.072 -3.012,0.478 -4.336,1.471c-2.062,1.546 -3.691,3.379 -5.377,5.142c-0.403,0.421 -0.809,0.838 -1.235,1.239c-0.369,-0.081 -0.757,-0.11 -1.154,-0.079c-4.761,0.366 -5.815,4.777 -5.145,6.853c0.399,1.238 1.241,2.214 2.478,2.765c0.974,0.433 2.48,0.751 4.428,-0.223c2.595,-1.298 4.558,-3.092 6.407,-5.024c1.341,-1.401 2.606,-2.89 4.22,-4.136c0.228,-0.003 0.821,-0.006 1.157,0.01c0.738,0.036 1.472,0.052 2.174,-0.019c1.625,-0.165 3.116,-0.734 4.411,-2.029c1.561,-1.561 1.561,-4.096 0,-5.657c-1.46,-1.46 -3.773,-1.555 -5.343,-0.282Z" style="fill:#fff;"/><path d="M251.653,58.171c-0.049,4.674 -0.543,9.498 -0.543,13.131c0,1.074 0.109,2.125 0.256,3.16l-0.001,0.918c0,2.315 0.391,4.9 0.842,7.155c0.085,0.425 0.255,1.274 0.255,1.274c0.428,2.142 2.496,3.545 4.644,3.15c2.149,-0.394 3.584,-2.439 3.224,-4.594c-0,0 -0.2,-1.085 -0.2,-1.634c-0,-2.067 -0.463,-4.136 -0.765,-6.272c-0.004,-7.32 0.008,-13.111 2.772,-20.02c0.169,-0.423 0.523,-1.34 0.844,-2.179c0.088,0.159 0.172,0.326 0.254,0.498c0.856,1.794 1.509,4.127 2.053,6.676c1.837,8.607 2.326,19.478 2.951,23.229c0.303,1.818 1.384,6.616 3.186,9.111c1.217,1.683 2.773,2.621 4.386,2.847c1.599,0.223 3.552,-0.12 5.573,-2.142c1.561,-1.561 1.561,-4.096 0,-5.657c-1.058,-1.058 -2.564,-1.399 -3.91,-1.021c-0.486,-1.451 -1.219,-3.707 -1.344,-4.453c-0.749,-4.494 -1.367,-18.927 -4.15,-28.022c-0.864,-2.822 -1.958,-5.193 -3.223,-6.848c-1.234,-1.615 -2.679,-2.665 -4.227,-3.181c-2.897,-0.966 -5.136,-0.085 -6.827,1.859c-0.092,-0.211 -0.189,-0.416 -0.289,-0.617c-0.536,-1.072 -1.315,-1.694 -2.158,-2.061c-0.983,-0.428 -2.235,-0.579 -3.658,0.072c-0.662,0.302 -1.585,0.964 -2.493,2.013c-1.215,1.403 -2.654,3.699 -3.509,5.652c-1.102,2.518 -1.003,4.814 -0.527,5.871c0.523,1.159 1.383,1.953 2.561,2.381c0.831,0.302 2.057,0.497 3.689,-0.145c0.115,-0.046 0.227,-0.096 0.334,-0.151Z" style="fill:#fff;"/><path d="M287.081,60.68c-0.735,-1.921 -1.384,-3.887 -1.8,-5.963c-0.434,-2.174 -2.328,-6.349 -3.355,-8.515c0.169,-1.336 -0.341,-2.726 -1.468,-3.628c-1.97,-1.577 -3.576,-1.178 -4.211,-0.984c-1.471,0.45 -3.124,1.587 -2.889,4.363c0.048,0.556 0.42,1.816 1.15,3.377c0.919,1.964 2.526,4.942 2.929,6.956c1.228,6.14 4.425,11.347 5.903,17.26c0.125,0.5 1.144,3.509 2.017,4.999c0.583,0.995 1.27,1.626 1.763,1.944c1.509,0.976 2.941,0.873 4.183,0.252c1.049,-0.524 2.267,-1.738 2.702,-3.89c0.479,-2.37 -0.101,-7.469 -0.001,-8.464c0.35,-3.5 2.344,-16.342 5.665,-23.728c0.594,-1.319 1.76,-2.897 2.052,-3.281c1.98,-0.238 3.516,-1.926 3.516,-3.97c-0,-2.208 -1.792,-4 -4,-4c-1.706,-0 -3.397,0.647 -4.947,2.057c-1.392,1.266 -2.75,3.319 -3.917,5.913c-2.419,5.379 -4.23,13.368 -5.292,19.302Z" style="fill:#fff;"/><path d="M316.397,71.735c-0.232,-0.886 -0.455,-1.774 -0.511,-2.11c-0.685,-4.112 -1.452,-19.938 -1.275,-23.475c0.191,-0.765 0.159,-1.594 -0.143,-2.386c-0.785,-2.063 -3.098,-3.101 -5.161,-2.316c-0.385,0.147 -2.499,1.131 -2.677,4.12c-0.212,3.564 0.62,20.902 1.365,25.372c0.155,0.935 0.627,3.515 1.315,5.38c0.518,1.406 1.243,2.503 1.903,3.116c1.25,1.159 2.65,1.473 4.037,1.215c1.054,-0.196 2.641,-0.839 3.836,-3.228c0.987,-1.974 0.186,-4.379 -1.789,-5.366c-0.292,-0.146 -0.594,-0.253 -0.9,-0.322Zm-3.905,-22.958l-0.145,0.068l0.017,-0.007l0.128,-0.061Zm0.202,-0.106l-0.162,0.087l0.047,-0.022l0.115,-0.065Zm0.592,-0.408c-0.177,0.148 -0.369,0.282 -0.575,0.399c0.193,-0.108 0.387,-0.239 0.575,-0.399Zm0.163,-0.143l-0.04,0.036l0.027,-0.023l0.013,-0.013Z" style="fill:#fff;"/><path d="M317.879,33.934c1.006,-1.002 2.239,-2.508 2.097,-3.746c-0.196,-1.709 -1.443,-3.043 -3.021,-3.43c-0.105,-2.114 -1.855,-3.799 -3.995,-3.799c-1.636,0 -3.277,0.736 -4.06,2.945c-0.427,1.204 -0.299,4.454 0.468,6.568c0.84,2.316 2.577,3.436 3.635,3.684c1.021,0.24 2.056,0.14 3.086,-0.432c0.551,-0.306 1.226,-0.819 1.79,-1.79Zm-0.756,0.709l-0.317,0.273c0.084,-0.069 0.196,-0.164 0.317,-0.273Zm-5.112,-3.733c0.004,0.062 0.01,0.125 0.017,0.188l-0.017,-0.188Zm1.154,0.044l-0.205,0.005c0.069,0 0.137,-0.001 0.205,-0.005Zm0.783,-0.118c-0.251,0.064 -0.512,0.104 -0.779,0.118c0.269,-0.013 0.529,-0.052 0.779,-0.118Zm-1.944,-0.072l0.004,0.079l-0.004,-0.111l-0,0.032Zm2.083,0.033l-0.106,0.03l0.071,-0.019l0.035,-0.011Zm-2.084,-0.195l-0,0.021l0,-0.038l-0,0.017Zm0.078,-1.832c-0.41,0.226 -0.843,0.589 -1.17,1.242c0.196,-0.392 0.663,-0.838 1.17,-1.242Z" style="fill:#fff;"/><path d="M328.233,43.396c1.698,-0.978 4.863,-2.792 5.629,-3.175c3.088,-1.544 6.412,-1.774 9.678,-2.19c4.311,-0.549 8.539,-1.338 12.413,-3.921c1.837,-1.224 2.334,-3.71 1.11,-5.547c-1.225,-1.837 -3.71,-2.334 -5.547,-1.109c-2.788,1.858 -5.885,2.246 -8.987,2.642c-4.147,0.528 -8.323,1.009 -12.245,2.97c-1.032,0.516 -4.414,2.153 -6.68,3.645c-1.575,1.038 -2.692,2.173 -3.156,2.972c-0.888,1.531 -0.795,2.945 -0.293,4.106c0.408,0.943 1.197,2.024 2.974,2.581c2.107,0.659 4.353,-0.516 5.012,-2.623c0.037,-0.116 0.068,-0.233 0.092,-0.351Zm-2.145,-4.434l0.063,0.032l-0.055,-0.028l-0.008,-0.004Zm-0.18,-0.083l0.172,0.079l-0.117,-0.056l-0.055,-0.023Zm-0.178,-0.071l0.166,0.066l-0.074,-0.031l-0.092,-0.035Zm-0.025,-0.01c-0.06,-0.022 -0.122,-0.043 -0.186,-0.063l0.186,0.063Z" style="fill:#fff;"/><path d="M343.429,13.262c0.169,-0.287 0.305,-0.601 0.4,-0.937c0.603,-2.124 -0.632,-4.337 -2.756,-4.94c-1.112,-0.315 -2.158,-0.184 -3.142,0.357c-0.673,0.37 -1.646,1.138 -2.133,2.753c-0.305,1.012 -0.497,3.417 -0.493,6.436c0.007,5.635 0.464,13.912 0.178,16.766c-1.561,15.61 -4.862,30.754 -4.862,46.525c0,2.207 1.793,4 4,4c2.208,-0 4,-1.793 4,-4c0,-15.503 3.288,-30.385 4.823,-45.729c0.299,-2.991 -0.132,-11.667 -0.139,-17.572c-0.002,-1.389 0.078,-2.914 0.124,-3.659Zm-3.168,1.962c-0.449,0.032 -0.913,-0.012 -1.372,-0.142c0.47,0.133 0.928,0.18 1.372,0.142Zm0.127,-0.012l-0.033,0.004l0.027,-0.003l0.006,-0.001Z" style="fill:#fff;"/><path d="M353.669,66.206c1.337,-0.272 2.587,-0.856 3.743,-1.667c1.691,-1.187 3.167,-2.922 4.43,-4.364c2.183,-2.495 6.764,-10.038 6.939,-15.531c0.115,-3.642 -1.27,-6.604 -4.593,-8.265c-2.183,-1.092 -4.744,-0.891 -7.294,0.586c-3.328,1.929 -6.83,6.486 -8.143,8.237c-5.047,6.728 -5.347,16.465 -2.619,23.693c2.05,5.433 5.817,9.345 10.089,10.397c4.54,1.117 10.386,-0.592 15.878,-8.829c1.224,-1.837 0.727,-4.323 -1.11,-5.547c-1.837,-1.225 -4.322,-0.728 -5.547,1.109c-1.626,2.439 -3.181,4.076 -4.727,4.963c-0.92,0.528 -1.781,0.733 -2.581,0.536c-2.053,-0.506 -3.467,-2.72 -4.465,-5.318Zm7.121,-22.174c-0.474,0.312 -1.145,0.779 -1.579,1.188c-1.778,1.679 -3.331,3.809 -4.06,4.782c-1.655,2.206 -2.5,4.897 -2.72,7.641c0.247,0.025 0.488,0.073 0.719,0.141c0.187,-0.172 0.367,-0.363 0.552,-0.541c0.78,-0.751 1.477,-1.602 2.119,-2.336c1.323,-1.513 3.975,-5.61 4.779,-9.198c0.118,-0.528 0.194,-1.039 0.186,-1.518l0.004,-0.159Z" style="fill:#fff;"/><path d="M390.127,38.971l-0.232,0.931c-0.49,-0.402 -1.011,-0.701 -1.536,-0.922c-1.573,-0.663 -3.431,-0.665 -5.339,0.108c-1.758,0.712 -3.636,2.17 -5.09,3.914c-4.381,5.257 -6.534,12.451 -6.534,19.126c0,1.917 0.569,5.029 1.853,7.219c0.981,1.673 2.356,2.871 3.957,3.423c1.664,0.575 3.712,0.598 6.11,-0.841c2.219,-1.332 4.742,-2.535 6.632,-4.424c0.555,-0.555 1.049,-1.175 1.486,-1.848c1.472,3.385 4.793,10.146 8.002,13.146c1.957,1.831 4.056,2.535 5.85,2.355c1.533,-0.154 3.083,-0.857 4.401,-2.614c1.828,-2.437 3.331,-5.753 4.71,-8.511c0.988,-1.975 0.186,-4.379 -1.788,-5.367c-1.975,-0.987 -4.38,-0.185 -5.367,1.789c-0.904,1.807 -1.833,3.914 -2.924,5.735c-0.594,-0.688 -1.326,-1.589 -1.821,-2.38c-2.173,-3.474 -3.973,-7.683 -4.141,-8.271c-1.693,-5.924 -1.357,-13.456 -0.479,-20.596c1.233,-4.952 2.486,-9.906 3.596,-14.9c1.134,-5.106 1.879,-9.906 1.879,-15.139c-0,-2.369 -0.261,-7.103 -0.261,-7.103c-0.113,-2.026 -1.726,-3.647 -3.752,-3.77c-2.026,-0.123 -3.823,1.291 -4.18,3.289c0,-0 -0.197,1.109 -0.277,1.667c-0.35,2.448 -0.439,4.951 -0.769,7.427c-0.675,5.057 -1.434,10.121 -2.275,15.162c-0.57,3.422 -1.21,7.325 -1.711,11.395Zm-5.024,8.217c-0.375,0.29 -0.772,0.629 -1.027,0.936c-3.201,3.84 -4.68,9.128 -4.68,14.004c0,0.556 0.332,1.704 0.585,2.496c1.485,-0.815 3.098,-1.565 4.31,-2.776c1.032,-1.032 1.431,-2.615 1.785,-4.209c0.526,-2.373 0.778,-4.855 1.216,-6.828c0.14,-0.631 0.283,-1.261 0.428,-1.892c-1.064,-0.196 -2.016,-0.819 -2.617,-1.731Z" style="fill:#fff;"/><path d="M477.366,27.449c-0.519,-0.093 -1.064,-0.083 -1.609,0.045c-2.568,0.602 -3.024,2.402 -3.126,2.706c-0.376,1.119 -0.269,2.177 0.272,3.18c0.176,0.326 1.145,2.12 3.739,2.126c1.482,0.003 8.559,-0.876 10.357,-1.693c6.963,-3.165 14.623,-3.741 21.54,-7.199c1.975,-0.988 2.776,-3.392 1.789,-5.367c-0.987,-1.975 -3.392,-2.776 -5.367,-1.789c-6.827,3.414 -14.4,3.948 -21.273,7.072c-0.947,0.431 -4.734,0.786 -6.322,0.919Zm0.408,7.783l-0.189,0.05c0.065,-0.015 0.129,-0.032 0.189,-0.05Z" style="fill:#fff;"/><path d="M492.365,52.993c-0.028,-0.376 -0.054,-0.859 -0.048,-1.234c0.035,-1.878 0.348,-3.904 0.517,-4.748c0.547,-2.735 2.338,-5.004 3.016,-7.714c1.782,-7.129 2.089,-14.187 2.656,-21.561c0.207,-2.69 1.012,-5.296 1.798,-7.874c0.859,-0.501 1.533,-1.322 1.827,-2.353c0.251,-0.877 0.243,-2.006 -0.176,-3.131c-0.394,-1.056 -1.226,-2.152 -1.226,-2.152c-0.948,-1.215 -2.51,-1.777 -4.015,-1.445c-1.505,0.332 -2.685,1.499 -3.034,3.001c-0,-0 -0.286,1.236 -0.46,1.845c-1.073,3.755 -2.388,7.559 -2.69,11.496c-0.533,6.918 -0.769,13.545 -2.441,20.233c-0.709,2.834 -2.528,5.227 -3.1,8.086c-0.259,1.296 -0.766,4.707 -0.659,7.458c0.065,1.666 0.385,3.141 0.872,4.156c1.013,2.111 2.673,3.11 4.729,3.11c2.207,-0 4,-1.793 4,-4c-0,-1.292 -0.614,-2.442 -1.566,-3.173Z" style="fill:#fff;"/><path d="M527.675,28.691c-0.444,-0.524 -1.027,-0.939 -1.717,-1.181c-0.173,-0.135 -1.181,-0.911 -1.734,-1.238c-1.389,-0.82 -2.938,-1.245 -4.937,-0.746c-1.952,0.488 -3.73,1.705 -5.184,3.596c-1.578,2.055 -2.808,5.024 -3.518,8.366c-0.979,4.611 -0.999,9.935 -0.005,14.112c0.833,3.496 2.442,6.242 4.474,7.766c2.146,1.609 4.281,2.196 6.301,2.141c2.814,-0.078 5.537,-1.489 7.828,-3.909c4.558,-4.814 7.251,-13.818 6.488,-18.4c-1.083,-6.498 -3.427,-8.424 -5.856,-9.685c-0.65,-0.337 -1.377,-0.53 -2.14,-0.822Zm-7.086,5.059c-0.178,0.224 -0.336,0.502 -0.509,0.784c-0.756,1.238 -1.296,2.857 -1.669,4.616c-0.736,3.463 -0.795,7.461 -0.048,10.597c0.329,1.384 0.687,2.615 1.491,3.219c1.095,0.821 2.131,0.406 3.01,-0.372c1.203,-1.065 2.213,-2.628 3.023,-4.296c1.346,-2.773 2.212,-5.867 1.892,-7.785c-0.317,-1.904 -0.607,-2.993 -1.226,-3.61c-0.616,-0.614 -1.416,-0.707 -2.214,-1.029c-1.206,-0.488 -2.464,-1.093 -3.75,-2.124Z" style="fill:#fff;"/></g></svg>